<?xml version="1.0" encoding="UTF-8"?>
<svg id="Layer_2" data-name="Layer 2" xmlns="http://www.w3.org/2000/svg" xmlns:xlink="http://www.w3.org/1999/xlink" viewBox="0 0 398.52 319.42">
  <defs>
    <style>
      .cls-1 {
        fill: url(#linear-gradient-15);
      }

      .cls-2 {
        fill: url(#linear-gradient-13);
      }

      .cls-3 {
        fill: #f7f2e3;
      }

      .cls-4 {
        fill: url(#linear-gradient-28);
      }

      .cls-5 {
        fill: #08171a;
      }

      .cls-6 {
        fill: #7a2103;
      }

      .cls-7 {
        fill: url(#linear-gradient-53);
      }

      .cls-8 {
        fill: url(#linear-gradient-42);
      }

      .cls-9 {
        fill: #8f3b0f;
      }

      .cls-10 {
        fill: url(#linear-gradient-46);
      }

      .cls-11 {
        fill: #53e2e9;
      }

      .cls-12 {
        fill: url(#linear-gradient-60);
      }

      .cls-13 {
        fill: url(#linear-gradient-2);
      }

      .cls-14 {
        fill: url(#linear-gradient-56);
      }

      .cls-15 {
        fill: url(#linear-gradient-43);
      }

      .cls-16 {
        fill: url(#linear-gradient-25);
      }

      .cls-17 {
        fill: #485e70;
      }

      .cls-18 {
        fill: url(#linear-gradient-10);
      }

      .cls-19 {
        fill: url(#linear-gradient-12);
      }

      .cls-20 {
        fill: url(#linear-gradient-40);
      }

      .cls-21 {
        fill: url(#linear-gradient-27);
      }

      .cls-22 {
        fill: #f8f0be;
      }

      .cls-23 {
        fill: url(#linear-gradient-37);
      }

      .cls-24 {
        fill: url(#linear-gradient-55);
      }

      .cls-25 {
        fill: #4f5d75;
      }

      .cls-26 {
        fill: #fff;
      }

      .cls-27 {
        fill: url(#linear-gradient-39);
      }

      .cls-28 {
        fill: url(#linear-gradient-52);
      }

      .cls-29 {
        fill: #55f0a1;
      }

      .cls-30 {
        fill: url(#linear-gradient-58);
      }

      .cls-31 {
        fill: url(#linear-gradient-47);
      }

      .cls-32 {
        fill: url(#linear-gradient-26);
      }

      .cls-33 {
        fill: url(#linear-gradient-4);
      }

      .cls-34 {
        fill: url(#linear-gradient-35);
      }

      .cls-35 {
        fill: url(#linear-gradient-30);
      }

      .cls-36 {
        fill: url(#linear-gradient-44);
      }

      .cls-37 {
        fill: #ffd774;
      }

      .cls-38 {
        fill: url(#linear-gradient-49);
      }

      .cls-39 {
        fill: url(#linear-gradient-3);
      }

      .cls-40 {
        fill: url(#linear-gradient-34);
      }

      .cls-41 {
        fill: url(#linear-gradient-5);
      }

      .cls-42 {
        fill: url(#linear-gradient-38);
      }

      .cls-43 {
        fill: url(#linear-gradient-22);
      }

      .cls-44 {
        fill: url(#linear-gradient-24);
      }

      .cls-45 {
        fill: url(#linear-gradient-54);
      }

      .cls-46 {
        fill: url(#linear-gradient-33);
      }

      .cls-47 {
        fill: #f64a03;
      }

      .cls-48 {
        fill: url(#linear-gradient-51);
      }

      .cls-49 {
        fill: #111b30;
      }

      .cls-50 {
        fill: url(#linear-gradient-8);
      }

      .cls-51 {
        fill: url(#linear-gradient-57);
      }

      .cls-52 {
        fill: #69fadc;
      }

      .cls-53 {
        fill: url(#linear-gradient-14);
      }

      .cls-54 {
        fill: url(#linear-gradient-29);
      }

      .cls-55 {
        fill: url(#linear-gradient-20);
      }

      .cls-56 {
        fill: #fdffee;
      }

      .cls-57 {
        fill: url(#linear-gradient-17);
      }

      .cls-58 {
        fill: url(#linear-gradient-50);
      }

      .cls-59 {
        fill: url(#linear-gradient-7);
      }

      .cls-60 {
        fill: #2a3942;
      }

      .cls-61 {
        fill: url(#linear-gradient-9);
      }

      .cls-62 {
        fill: url(#linear-gradient-59);
      }

      .cls-63 {
        fill: url(#linear-gradient-11);
      }

      .cls-64 {
        fill: url(#linear-gradient-19);
      }

      .cls-65 {
        fill: url(#linear-gradient-6);
      }

      .cls-66 {
        fill: #f9f9de;
      }

      .cls-67 {
        fill: #2b6da6;
      }

      .cls-68 {
        fill: url(#linear-gradient-36);
      }

      .cls-69 {
        fill: url(#linear-gradient-21);
      }

      .cls-70 {
        fill: url(#linear-gradient-45);
      }

      .cls-71 {
        fill: url(#linear-gradient-48);
      }

      .cls-72 {
        fill: url(#linear-gradient-32);
      }

      .cls-73 {
        fill: url(#linear-gradient-41);
      }

      .cls-74 {
        fill: url(#linear-gradient-16);
      }

      .cls-75 {
        fill: url(#linear-gradient);
      }

      .cls-76 {
        fill: #1a4164;
      }

      .cls-77 {
        fill: url(#linear-gradient-23);
      }

      .cls-78 {
        fill: url(#linear-gradient-31);
      }

      .cls-79 {
        fill: #2d3142;
      }

      .cls-80 {
        fill: url(#linear-gradient-18);
      }
    </style>
    <linearGradient id="linear-gradient" x1="199.26" y1="294.01" x2="199.26" y2="0" gradientUnits="userSpaceOnUse">
      <stop offset="0" stop-color="#ab3d10"/>
      <stop offset=".04" stop-color="#ae4211"/>
      <stop offset=".09" stop-color="#b75114"/>
      <stop offset=".14" stop-color="#c66a19"/>
      <stop offset=".19" stop-color="#db8d20"/>
      <stop offset=".23" stop-color="#eeab26"/>
      <stop offset=".54" stop-color="#fefbb3"/>
      <stop offset="1" stop-color="#f4c651"/>
    </linearGradient>
    <linearGradient id="linear-gradient-2" x1="199.27" y1="315.95" x2="199.27" y2="264.21" gradientUnits="userSpaceOnUse">
      <stop offset="0" stop-color="#eeab26"/>
      <stop offset=".09" stop-color="#db8d20"/>
      <stop offset=".22" stop-color="#c66a19"/>
      <stop offset=".34" stop-color="#b75114"/>
      <stop offset=".45" stop-color="#ae4211"/>
      <stop offset=".54" stop-color="#ab3d10"/>
    </linearGradient>
    <linearGradient id="linear-gradient-3" x1="110.32" y1="297.81" x2="110.32" y2="279.69" gradientUnits="userSpaceOnUse">
      <stop offset="0" stop-color="#c5d4b6"/>
      <stop offset=".5" stop-color="#fcfcd8"/>
      <stop offset="1" stop-color="#ffffe8"/>
    </linearGradient>
    <linearGradient id="linear-gradient-4" x1="110.32" y1="297.31" x2="110.32" y2="280.19" gradientUnits="userSpaceOnUse">
      <stop offset="0" stop-color="#446d71"/>
      <stop offset=".44" stop-color="#fceea4" stop-opacity="0"/>
    </linearGradient>
    <linearGradient id="linear-gradient-5" x1="124.83" x2="124.83" xlink:href="#linear-gradient-3"/>
    <linearGradient id="linear-gradient-6" x1="124.83" x2="124.83" xlink:href="#linear-gradient-4"/>
    <linearGradient id="linear-gradient-7" x1="139.34" x2="139.34" xlink:href="#linear-gradient-3"/>
    <linearGradient id="linear-gradient-8" x1="139.34" x2="139.34" xlink:href="#linear-gradient-4"/>
    <linearGradient id="linear-gradient-9" x1="153.85" x2="153.85" xlink:href="#linear-gradient-3"/>
    <linearGradient id="linear-gradient-10" x1="153.85" x2="153.85" xlink:href="#linear-gradient-4"/>
    <linearGradient id="linear-gradient-11" x1="168.36" x2="168.36" xlink:href="#linear-gradient-3"/>
    <linearGradient id="linear-gradient-12" x1="168.36" x2="168.36" xlink:href="#linear-gradient-4"/>
    <linearGradient id="linear-gradient-13" x1="182.87" x2="182.87" xlink:href="#linear-gradient-3"/>
    <linearGradient id="linear-gradient-14" x1="182.87" x2="182.87" xlink:href="#linear-gradient-4"/>
    <linearGradient id="linear-gradient-15" x1="198.42" y1="294.48" x2="198.42" y2="285.21" gradientUnits="userSpaceOnUse">
      <stop offset="0" stop-color="#94efe0"/>
      <stop offset=".57" stop-color="#f0e5d0"/>
      <stop offset="1" stop-color="#fff"/>
    </linearGradient>
    <linearGradient id="linear-gradient-16" x1="198.42" y1="293.98" x2="198.42" y2="285.71" gradientUnits="userSpaceOnUse">
      <stop offset="0" stop-color="#03c9ab"/>
      <stop offset=".02" stop-color="#1bcbae" stop-opacity=".9"/>
      <stop offset=".09" stop-color="#5bd3b8" stop-opacity=".63"/>
      <stop offset=".16" stop-color="#90d9c1" stop-opacity=".4"/>
      <stop offset=".22" stop-color="#badec7" stop-opacity=".23"/>
      <stop offset=".28" stop-color="#d7e2cc" stop-opacity=".1"/>
      <stop offset=".34" stop-color="#e9e4cf" stop-opacity=".03"/>
      <stop offset=".38" stop-color="#f0e5d0" stop-opacity="0"/>
    </linearGradient>
    <linearGradient id="linear-gradient-17" x1="213.98" x2="213.98" xlink:href="#linear-gradient-3"/>
    <linearGradient id="linear-gradient-18" x1="213.98" x2="213.98" xlink:href="#linear-gradient-4"/>
    <linearGradient id="linear-gradient-19" x1="228.48" x2="228.48" xlink:href="#linear-gradient-3"/>
    <linearGradient id="linear-gradient-20" x1="228.48" x2="228.48" xlink:href="#linear-gradient-4"/>
    <linearGradient id="linear-gradient-21" x1="243.86" x2="243.86" xlink:href="#linear-gradient-3"/>
    <linearGradient id="linear-gradient-22" x1="243.85" x2="243.85" xlink:href="#linear-gradient-4"/>
    <linearGradient id="linear-gradient-23" x1="259.2" x2="259.2" xlink:href="#linear-gradient-3"/>
    <linearGradient id="linear-gradient-24" x1="259.2" x2="259.2" xlink:href="#linear-gradient-4"/>
    <linearGradient id="linear-gradient-25" x1="273.71" x2="273.71" xlink:href="#linear-gradient-3"/>
    <linearGradient id="linear-gradient-26" x1="273.71" x2="273.71" xlink:href="#linear-gradient-4"/>
    <linearGradient id="linear-gradient-27" x1="288.22" x2="288.22" xlink:href="#linear-gradient-3"/>
    <linearGradient id="linear-gradient-28" x1="288.22" x2="288.22" xlink:href="#linear-gradient-4"/>
    <linearGradient id="linear-gradient-29" x1="34.49" y1="277.76" x2="34.49" y2="219.6" xlink:href="#linear-gradient-15"/>
    <linearGradient id="linear-gradient-30" x1="77.69" y1="270.72" x2="77.69" y2="229.48" xlink:href="#linear-gradient-15"/>
    <linearGradient id="linear-gradient-31" x1="115.25" y1="268.81" x2="115.25" y2="229.22" xlink:href="#linear-gradient-15"/>
    <linearGradient id="linear-gradient-32" x1="153.06" y1="267.44" x2="153.06" y2="229.04" xlink:href="#linear-gradient-15"/>
    <linearGradient id="linear-gradient-33" x1="364.1" y1="277.77" x2="364.1" y2="219.6" xlink:href="#linear-gradient-15"/>
    <linearGradient id="linear-gradient-34" x1="323.2" y1="270.85" x2="323.2" y2="229.5" xlink:href="#linear-gradient-15"/>
    <linearGradient id="linear-gradient-35" x1="285.53" y1="268.9" x2="285.53" y2="229.21" xlink:href="#linear-gradient-15"/>
    <linearGradient id="linear-gradient-36" x1="247.82" y1="267.5" x2="247.82" y2="229.05" xlink:href="#linear-gradient-15"/>
    <linearGradient id="linear-gradient-37" x1="219.39" y1="266.88" x2="219.39" y2="229" xlink:href="#linear-gradient-15"/>
    <linearGradient id="linear-gradient-38" x1="190.83" y1="266.86" x2="190.83" y2="228.99" xlink:href="#linear-gradient-15"/>
    <linearGradient id="linear-gradient-39" x1="34.65" y1="276.49" x2="34.65" y2="220.6" xlink:href="#linear-gradient-16"/>
    <linearGradient id="linear-gradient-40" x1="77.71" y1="269.65" x2="77.71" y2="230.49" xlink:href="#linear-gradient-16"/>
    <linearGradient id="linear-gradient-41" x1="115.31" y1="267.76" x2="115.31" y2="230.22" xlink:href="#linear-gradient-16"/>
    <linearGradient id="linear-gradient-42" x1="153.06" y1="266.44" x2="153.06" y2="230.04" xlink:href="#linear-gradient-16"/>
    <linearGradient id="linear-gradient-43" x1="363.96" y1="276.51" x2="363.96" y2="220.6" xlink:href="#linear-gradient-16"/>
    <linearGradient id="linear-gradient-44" x1="323.18" y1="269.78" x2="323.18" y2="230.51" xlink:href="#linear-gradient-16"/>
    <linearGradient id="linear-gradient-45" x1="285.52" y1="267.85" x2="285.52" y2="230.22" xlink:href="#linear-gradient-16"/>
    <linearGradient id="linear-gradient-46" x1="247.82" y1="266.5" x2="247.82" y2="230.05" xlink:href="#linear-gradient-16"/>
    <linearGradient id="linear-gradient-47" x1="219.39" y1="265.87" x2="219.39" y2="230" xlink:href="#linear-gradient-16"/>
    <linearGradient id="linear-gradient-48" x1="190.84" y1="265.85" x2="190.84" y2="229.99" xlink:href="#linear-gradient-16"/>
    <linearGradient id="linear-gradient-49" x1="103.95" y1="215.23" x2="103.95" y2="171.52" gradientUnits="userSpaceOnUse">
      <stop offset="0" stop-color="#f3bc51"/>
      <stop offset=".5" stop-color="#fceea4"/>
      <stop offset="1" stop-color="#ffffe8"/>
    </linearGradient>
    <linearGradient id="linear-gradient-50" x1="141.47" y1="215.23" x2="141.47" xlink:href="#linear-gradient-49"/>
    <linearGradient id="linear-gradient-51" x1="179" x2="179" xlink:href="#linear-gradient-49"/>
    <linearGradient id="linear-gradient-52" x1="292.15" x2="292.15" xlink:href="#linear-gradient-49"/>
    <linearGradient id="linear-gradient-53" x1="252.97" x2="252.97" xlink:href="#linear-gradient-49"/>
    <linearGradient id="linear-gradient-54" x1="217.26" y1="215.23" x2="217.26" xlink:href="#linear-gradient-49"/>
    <linearGradient id="linear-gradient-55" x1="104.03" y1="214.23" x2="104.03" y2="172.52" gradientUnits="userSpaceOnUse">
      <stop offset="0" stop-color="#c96b35"/>
      <stop offset=".44" stop-color="#fceea4" stop-opacity="0"/>
    </linearGradient>
    <linearGradient id="linear-gradient-56" x1="141.51" y1="214.23" x2="141.51" xlink:href="#linear-gradient-55"/>
    <linearGradient id="linear-gradient-57" x1="179.01" x2="179.01" xlink:href="#linear-gradient-55"/>
    <linearGradient id="linear-gradient-58" x1="292.13" x2="292.13" xlink:href="#linear-gradient-55"/>
    <linearGradient id="linear-gradient-59" x1="252.95" x2="252.95" xlink:href="#linear-gradient-55"/>
    <linearGradient id="linear-gradient-60" x1="217.24" y1="214.23" x2="217.24" xlink:href="#linear-gradient-55"/>
  </defs>
  <g id="Layer_9" data-name="Layer 9">
    <polygon class="cls-6" points="29.59 293.99 29.59 297.48 0 291.14 0 287.65 29.59 293.99"/>
    <polygon class="cls-6" points="398.52 287.7 398.52 291.19 368.98 297.49 368.98 294 398.52 287.7"/>
    <path class="cls-6" d="M368.98,294v3.49c-52.71-8.43-107.95-12.69-164.18-12.69s-115.16,4.27-175.21,12.69v-3.49c60.05-8.42,119-12.69,175.21-12.69s111.47,4.27,164.18,12.69"/>
    <path class="cls-75" d="M368.98,294.01c-52.71-8.44-107.94-12.73-164.17-12.73s-115.17,4.28-175.21,12.72l-29.6-6.35,16.35-78.16h62l6.91-48.09h39.53l.02-18.87,9.45-16.77-13.28,11.68-17,.07-.51-4.45c-.21-1.83-.37-3.3-.5-4.48-3.28-.11-8.02-.22-11.88-.28l-3.29-.05-8.58-20.94,15.17-12.39-1.37.58-7.01-13.05,9.74-10.83,12.32-39.31,10.67-.03,11.68,12.43-.08.27,1.63-1.45,3.57,5.24,22.31-32.94,20.46,18.72-8.24,12.62,8.56-2.1,14.33,15.81-6.42,2.93,23.64,33.09,1.72-13.72-18.98-26.6L301.95,0l14.74,16.32-27.56,51.43,27.16,45.14-41.22,14.86-7.21,31.24-17.92-.71-3.96,3.12h65.19l6.93,48.09h64.52l15.9,78.2-29.54,6.32ZM201.84,123.86l5.21-2.25,3.05-24.28-13.47,3.26-2.26,9.43,7.47,13.85Z"/>
  </g>
  <g id="Dragon">
    <path class="cls-49" d="M98.09,221.36v-7.65l4.75-21.16h9.26l.1-3.92h18.3l8.14-8.02-10.86-11.16.03-26.14,14.64-25.98h5.62l3.72-8.74h5.54l3.75-10.42-41.23,36.27-13.19.05-.2-1.78c-.41-3.56-.64-5.7-.75-7.03-2.97-.15-9.72-.31-14.56-.39l-1.32-.02-6.99-17.05,16.28-13.31-1.63-4.59-3.13,1.33-4.72-8.78,8.77-9.74,11.86-37.84,7.17-.02,9.6,10.22-2.62,8.72,6.98-6.19,4.13,6.08,22.84-33.72,16.02,14.66-11.01,16.86,14.21-3.49,10.37,11.45-6,2.74,23.41,32.77-11.23,2.72-2.95,12.33,8.48,15.72-14.33,2.56-1.2,6.07,25.68-11.09,5.18-41.27-17.65-24.74L301.28,3.73l11.77,13.04-27.37,51.07,26.16,43.47-39.32,14.17-7.01,30.42-16.54-.66-8.77,6.9-25.73-6.32.09,6.66,2.64,3.39,6.93-.35.67,8.51,6.07-.77.11,5.07,4.34,5.28,15.96-1.81.67,5.58,13.51,2.94-.91,1.93,14.29,4.69-3.97,3.07,8.51,20.04-13.18-12.93-7.62-2.5-18.08-4.06-14.76-.11-.23,10.96h-36.27l-1.24,3.16h-25.96s4.19-15.73,4.19-15.73h1.62v-6.87h1.99l-5.41-5.41-23.96,27.15v7.65h-46.38ZM208.32,156.45l4.45-1.04-7.13-1.75,2.67,2.8ZM163.66,90.99l.68-1.88-3.4-9.55h-1.29l4.02,11.43Z"/>
    <polygon class="cls-79" points="169.85 212.59 171.17 212.59 171.53 211.37 173.88 211.37 176.89 203.65 176.89 201.65 172.26 201.65 169.85 212.59"/>
    <polygon class="cls-79" points="106.18 120.72 92.53 119.91 88.21 109.67 104.03 96.17 103.59 94.69 104.82 93.8 102.02 83.7 103.37 74.52 113.61 40.68 116.3 40.68 107.19 73.54 111.03 73.6 128.28 56.8 125.19 69.53 135.51 63.68 159.41 27.93 167.14 34.56 145.75 67.39 138.81 66.43 145.75 67.39 153.74 95.86 139.22 108.67 135.2 101.54 106.18 120.72"/>
    <polygon class="cls-37" points="145.35 122.63 152.08 122.63 155.09 112.76 161.61 112.76 168.95 91.4 188.53 90.54 183.51 113.19 177.08 113.19 174.37 122.73 170.95 122.73 167.14 131.96 162.82 131.96 156.02 145.57 154.69 164.3 133.1 164.3 133.1 144.72 145.35 122.63"/>
    <polygon class="cls-22" points="134.87 154.18 134.87 145.18 146.39 124.4 153.39 124.4 156.4 114.53 162.88 114.53 170.23 93.11 186.3 92.41 182.09 111.42 175.74 111.42 173.03 120.96 169.77 120.96 165.95 130.19 161.73 130.19 154.28 145.09 153.63 154.18 134.87 154.18"/>
    <polygon class="cls-79" points="158.3 146.63 156.39 173.14 165.23 173.14 169.65 180.77 173.77 180.77 173.77 142.61 158.3 146.63"/>
    <polygon class="cls-79" points="157.1 176.05 161.36 176.05 164.02 180.77 146.85 201.86 146.85 196.28 116.53 196.28 116.53 193.12 143.04 193.12 157.1 176.05"/>
    <polygon class="cls-76" points="214.84 60.08 296.86 13.57 296.86 10.71 203.92 59.06 219.44 80.27 214.84 60.08"/>
    <polygon class="cls-76" points="232.06 72.67 294.7 106.62 228.39 80 232.06 72.67"/>
    <polygon class="cls-76" points="214.84 123.47 219.81 125.48 219.81 87.22 214.84 123.47"/>
    <polygon class="cls-76" points="182 140.3 182.6 144.72 214.84 129.35 212.13 127.55 182 140.3"/>
    <polygon class="cls-37" points="202.99 147.02 220.61 136.37 244.33 151.71 237.62 156.68 202.99 147.02"/>
    <polygon class="cls-37" points="228.72 100.59 267.22 121.58 261.12 148.98 248.86 148.13 229.46 129.96 228.72 100.59"/>
    <polygon class="cls-37" points="290.39 110.83 270.03 117.69 228.59 95.18 228.38 86.98 290.39 110.83"/>
    <polygon class="cls-37" points="230.22 60.88 294.7 101.66 273.63 68.55 299.5 22.08 230.22 60.88"/>
    <polygon class="cls-79" points="191.64 179.66 201.28 179.66 201.28 184.58 205.2 185.09 212.43 193.42 215.44 193.42 214.84 176.45 224.38 182.38 203.69 164.3 191.64 168.92 191.64 179.66"/>
    <polygon class="cls-52" points="198.42 150.84 192.44 152.55 211.42 168.22 214.23 168.22 211.6 164.3 210.66 159.28 207.6 160.34 198.42 150.84"/>
    <polygon class="cls-52" points="213.83 169.62 220.69 169.17 221.74 176.4 219.86 176.85 213.83 169.62"/>
    <polygon class="cls-52" points="227.65 179.48 227.65 188.82 232.99 188.37 227.65 179.48"/>
    <polygon class="cls-52" points="236.73 187.92 237.11 190.11 248.4 191.69 247.88 186.49 236.73 187.92"/>
    <polygon class="cls-52" points="252.09 191.01 260.38 192.82 258.87 195.08 251.79 193.05 252.09 191.01"/>
    <polygon class="cls-52" points="263.92 195.53 266.18 199.82 271 197.68 263.92 195.53"/>
    <polygon class="cls-17" points="196.06 189.09 196.06 195.91 203.89 195.91 196.06 189.09"/>
    <polygon class="cls-76" points="167.76 55.36 172.86 62.55 181.7 58.42 176.08 52.73 167.76 55.36"/>
    <polygon class="cls-76" points="177.88 62.27 174.37 64.88 188.53 77.94 177.88 62.27"/>
    <polygon class="cls-76" points="191.42 82.55 192.44 94.7 198.97 93.2 191.42 82.55"/>
    <polygon class="cls-76" points="188.53 113.89 194.22 123.53 186.92 124.4 188.53 113.89"/>
    <polygon class="cls-37" points="134.75 105 110.8 123.93 110.8 129.71 117.43 129.71 137.92 111.03 134.75 105"/>
    <polygon class="cls-52" points="159.46 27.73 161.41 29.69 138.81 66.43 132.49 71.41 134.9 64.18 159.46 27.73"/>
    <polygon class="cls-25" points="119.94 96.47 101.97 110.88 106.18 120.72 92.53 119.91 88.21 109.67 104.03 96.17 100.64 84.89 96.09 86.63 94.78 83.84 103.37 74.52 107.19 73.54 111.35 73.47 128.28 56.8 118.38 73.32 135.08 63.92 138.81 66.43 132.49 77.29 112.91 87.81 116.42 97.24 119.94 96.47"/>
    <polygon class="cls-52" points="103.37 74.52 113.61 40.68 116.3 40.68 107.19 73.54 103.37 74.52"/>
    <polygon class="cls-76" points="138.81 66.43 145.75 67.39 167.14 34.56 161.41 29.69 138.81 66.43"/>
    <polygon class="cls-76" points="111.03 73.6 120.98 45.87 116.3 40.68 107.19 73.54 111.03 73.6"/>
    <polygon class="cls-37" points="169.25 88.76 165.23 76.33 174.77 88.68 169.25 88.76"/>
    <polygon class="cls-52" points="219.44 80.27 208.14 59.59 296.86 10.71 203.92 59.06 219.44 80.27"/>
    <polygon class="cls-52" points="214.84 123.47 216.62 124.19 219.81 87.22 214.84 123.47"/>
    <polygon class="cls-52" points="232.06 72.67 230.83 75.13 294.7 106.62 232.06 72.67"/>
    <polygon class="cls-52" points="182.22 141.92 213.13 128.22 212.13 127.55 182 140.3 182.22 141.92"/>
    <polygon class="cls-52" points="168.85 56.53 175.76 54.39 181.7 58.42 176.08 52.73 167.76 55.36 168.85 56.53"/>
    <polygon class="cls-52" points="188.53 77.94 177.88 62.27 176.71 63.15 188.53 77.94"/>
    <polygon class="cls-52" points="191.42 82.55 196.56 93.75 198.97 93.2 191.42 82.55"/>
    <polygon class="cls-5" points="117.2 87.28 123 100.83 138.81 91.14 133.1 78.74 117.2 87.28"/>
    <polygon class="cls-47" points="120.98 88.6 131.73 82.82 135.04 90 124.37 96.54 120.98 88.6"/>
    <polygon class="cls-37" points="123.54 89.5 128.79 83.11 132.48 89.22 125.3 93.62 123.54 89.5"/>
    <polygon class="cls-22" points="110.8 123.93 112.31 128.35 117.13 128.35 137.92 111.03 117.43 129.71 110.8 129.71 110.8 123.93"/>
    <polygon class="cls-52" points="130.96 52.92 127.11 67.23 134.8 59.16 130.96 52.92"/>
    <polygon class="cls-76" points="127.11 67.23 131.95 54.53 134.8 59.16 127.11 67.23"/>
    <polygon class="cls-25" points="156.39 173.14 161.36 173.11 162.9 145.43 158.3 146.63 156.39 173.14"/>
    <polygon class="cls-25" points="142.97 193.15 146.66 193.15 161.29 176.08 157.02 176.08 142.97 193.15"/>
    <polygon class="cls-25" points="195.99 179.69 195.99 170.86 203.62 164.33 191.57 168.95 191.57 179.69 195.99 179.69"/>
    <polygon class="cls-37" points="134.87 145.18 148.88 145.18 134.87 147.69 134.87 145.18"/>
    <polygon class="cls-37" points="146.39 124.4 165.08 124.4 144.64 127.55 146.39 124.4"/>
    <polygon class="cls-37" points="156.4 114.53 172.37 114.53 155.76 116.63 156.4 114.53"/>
    <polygon class="cls-79" points="136.79 78.86 119.49 93.26 112.91 87.81 131.34 70.55 136.79 78.86"/>
    <polygon class="cls-76" points="192.44 152.55 197.57 152.55 213.13 168.22 211.42 168.22 192.44 152.55"/>
    <polygon class="cls-22" points="294.7 101.66 238.08 61.74 299.5 22.08 230.22 60.88 294.7 101.66"/>
    <polygon class="cls-22" points="202.99 147.02 220.26 139.09 244.33 151.71 220.61 136.37 202.99 147.02"/>
    <path class="cls-22" d="M229.46,129.96c.59-.98,2.29-23.34,2.29-23.34l35.46,14.96-38.49-20.99.74,29.37Z"/>
    <polygon class="cls-22" points="228.59 95.18 230.22 89.64 290.39 110.83 228.38 86.98 228.59 95.18"/>
    <polygon class="cls-76" points="246.56 150.42 221.98 133.61 224.44 130.38 246.56 150.42"/>
    <path class="cls-52" d="M224.44,130.38c.24-.32-.86,1.14-.86,1.14l22.99,18.9-22.13-20.04Z"/>
    <polygon class="cls-22" points="172.07 88.15 170 88.15 166.78 79.45 172.07 88.15"/>
    <polygon class="cls-52" points="194.22 123.53 190.85 123.93 188.53 113.89 194.22 123.53"/>
    <polygon class="cls-79" points="159.2 143.92 163.65 134.73 168.44 134.73 171.76 125.48 175.59 125.48 178.25 115.02 184.61 115.02 177.2 138.76 159.2 143.92"/>
    <polygon class="cls-25" points="180.29 115.11 177.14 127.48 173.16 127.48 169.84 136.73 164.9 136.73 161.78 143.19 159.2 143.92 163.65 134.73 168.44 134.73 171.76 125.48 175.59 125.48 178.25 115.02 180.29 115.11"/>
    <polygon class="cls-79" points="116.34 217.68 118.52 217.68 122.01 210.06 127.61 210.06 127.61 199.44 119.42 199.44 116.34 217.68"/>
    <polygon class="cls-26" points="116.34 217.68 117.49 217.68 121.69 199.44 119.42 199.44 116.34 217.68"/>
    <polygon class="cls-79" points="102.84 217.68 105.02 217.68 108.51 210.06 114.11 210.06 114.11 199.44 105.92 199.44 102.84 217.68"/>
    <polygon class="cls-26" points="102.84 217.68 103.99 217.68 108.19 199.44 105.92 199.44 102.84 217.68"/>
    <polygon class="cls-79" points="129.01 217.68 131.2 217.68 134.68 210.06 140.28 210.06 140.28 199.44 132.09 199.44 129.01 217.68"/>
    <polygon class="cls-26" points="129.01 217.68 130.16 217.68 134.36 199.44 132.09 199.44 129.01 217.68"/>
    <polygon class="cls-26" points="169.85 212.59 170.6 212.59 173.13 201.65 172.26 201.65 169.85 212.59"/>
    <polygon class="cls-79" points="178.02 212.59 179.34 212.59 179.71 211.37 182.05 211.37 185.06 203.65 185.06 201.65 180.43 201.65 178.02 212.59"/>
    <polygon class="cls-26" points="178.02 212.59 178.77 212.59 181.3 201.65 180.43 201.65 178.02 212.59"/>
    <polygon class="cls-79" points="186.19 212.59 187.51 212.59 187.88 211.37 190.22 211.37 193.24 203.65 193.24 201.65 188.6 201.65 186.19 212.59"/>
    <polygon class="cls-26" points="186.19 212.59 186.94 212.59 189.47 201.65 188.6 201.65 186.19 212.59"/>
    <polygon class="cls-76" points="213.83 169.62 215.16 169.53 220.69 176.65 219.86 176.85 213.83 169.62"/>
    <polygon class="cls-76" points="227.65 179.48 229.79 188.64 227.65 188.82 227.65 179.48"/>
    <polygon class="cls-76" points="236.73 187.92 248.4 191.69 237.11 190.11 236.73 187.92"/>
    <polygon class="cls-76" points="251.93 192.14 259.54 194.08 258.87 195.08 251.79 193.05 251.93 192.14"/>
    <polygon class="cls-76" points="263.92 195.53 268.19 198.93 266.18 199.82 263.92 195.53"/>
  </g>
  <g id="Layer_5" data-name="Layer 5">
    <path class="cls-6" d="M298.59,304.3c-28.97,2.35-58.47,3.68-87.69,3.96v3.49c29.21-.28,58.72-1.61,87.69-3.96l2.76-.22v-3.49l-2.76.22Z"/>
    <path class="cls-13" d="M288.87,264.21c3.24,0,6.33,1.28,8.69,3.6,2.57,2.77,3.8,5.9,3.8,9.19v27.07l-2.76.22c-28.97,2.36-58.47,3.69-87.69,3.97l-12.48,7.69-12.49-7.7c-28.58-.31-57.5-1.65-85.98-3.96l-2.76-.22v-39.86h19.53c1.2,0,2.38.18,3.51.53,1.14-.35,2.31-.53,3.51-.53h7.02c1.2,0,2.38.18,3.51.54,1.14-.36,2.31-.54,3.51-.54h7.02c1.2,0,2.38.18,3.51.55,1.14-.37,2.31-.55,3.51-.55h46.91c.56,0,1.17,0,1.77.06l88.37-.06Z"/>
    <path class="cls-49" d="M369.46,291.05l25.54-5.65-14.82-72.91h-64.67l-6.93-48.09H87.86l-6.91,48.09H18.79l-15.24,72.87,25.63,5.67c116.98-16.45,230.65-17.55,340.28.01Z"/>
    <path class="cls-6" d="M99.95,304.3l-2.76-.22v3.49l2.76.22c28.48,2.31,57.39,3.64,85.98,3.95v-3.49c-28.58-.31-57.5-1.64-85.98-3.95Z"/>
    <polygon class="cls-6" points="198.42 315.93 198.42 319.42 185.93 311.74 185.93 308.25 198.42 315.93"/>
    <polygon class="cls-6" points="210.9 308.26 210.9 311.75 198.42 319.42 198.42 315.93 210.9 308.26"/>
    <path class="cls-49" d="M298.35,277.86c0-2.54-.94-4.94-2.64-6.79-.04-.05-.08-.09-.13-.14-.04-.04-.09-.09-.13-.13-1.78-1.76-4.12-2.74-6.58-2.74h-88.37s-11.12,0-13.58,0h-35.1c-1.22,0-2.41.26-3.51.75-1.1-.49-2.29-.75-3.51-.75h-7.02c-1.22,0-2.41.26-3.51.74-1.1-.48-2.29-.74-3.51-.74h-7.02c-1.22,0-2.41.25-3.51.72-1.11-.47-2.29-.72-3.51-.72h-16.52v34.12c28.88,2.35,57.82,3.67,86.76,3.96l11.47,7.17,11.47-7.16c29.51-.26,59.01-1.57,88.45-3.97v-24.33Z"/>
    <g>
      <polygon class="cls-67" points="198.42 304.07 198.42 307.72 194.77 304.07 198.42 304.07"/>
      <polygon class="cls-11" points="198.42 300.42 198.42 304.07 194.77 304.07 198.42 300.42"/>
      <polygon class="cls-56" points="202.07 304.07 198.42 304.07 198.42 300.42 202.07 304.07"/>
      <polygon class="cls-29" points="202.07 304.07 198.42 307.72 198.42 304.07 202.07 304.07"/>
    </g>
    <path class="cls-39" d="M113.96,288.74c.49,0,.92.18,1.28.54.34.34.52.77.52,1.28v5.44c0,.51-.17.93-.52,1.28-.36.36-.79.54-1.28.54h-9.07v-18.12h9.07c.49,0,.92.17,1.28.52.34.36.52.79.52,1.28v5.46c0,.49-.17.92-.52,1.28-.36.34-.79.52-1.28.52ZM108.5,286.94h3.64v-3.64h-3.64v3.64ZM108.5,294.2h3.64v-3.64h-3.64v3.64Z"/>
    <path class="cls-33" d="M105.39,297.31v-17.12h8.57c.36,0,.67.12.93.38.24.25.36.56.36.92v5.46c0,.36-.12.67-.38.93-.25.24-.56.36-.92.36v1c.36,0,.66.13.93.4.25.25.37.55.37.92v5.44c0,.37-.12.68-.37.92-.27.27-.57.4-.93.4h-8.57ZM108,294.7h4.64v-4.64h-4.64v4.64ZM108,287.44h4.64v-4.64h-4.64v4.64Z"/>
    <path class="cls-41" d="M130.27,281.49v14.51c0,.51-.17.93-.52,1.28-.36.36-.79.54-1.28.54h-7.25c-.51,0-.93-.18-1.28-.54-.36-.34-.54-.77-.54-1.28v-14.51c0-.49.18-.92.54-1.28.34-.34.77-.52,1.28-.52h7.25c.49,0,.92.17,1.28.52.34.36.52.79.52,1.28ZM123.01,294.2h3.64v-10.89h-3.64v10.89Z"/>
    <path class="cls-65" d="M121.22,297.31c-.37,0-.67-.12-.92-.39-.28-.26-.4-.56-.4-.93v-14.51c0-.36.13-.66.39-.93.25-.25.55-.37.93-.37h7.25c.36,0,.67.12.93.38.24.25.36.56.36.92v14.51c0,.37-.12.68-.37.92-.27.27-.57.4-.93.4h-7.25ZM122.51,294.7h4.64v-11.89h-4.64v11.89Z"/>
    <path class="cls-59" d="M141.16,285.12v-1.82h-3.64v3.64h5.46c.49,0,.92.17,1.28.52.34.36.52.79.52,1.28v7.25c0,.51-.17.93-.52,1.28-.36.36-.79.54-1.28.54h-7.25c-.51,0-.93-.18-1.28-.54-.36-.34-.54-.77-.54-1.28v-3.62h3.62v1.82h3.64v-3.64h-5.43c-.51,0-.93-.17-1.28-.52s-.54-.79-.54-1.3v-7.25c0-.49.18-.92.54-1.28.34-.34.77-.52,1.28-.52h7.25c.49,0,.92.17,1.28.52.34.36.52.79.52,1.28v3.64h-3.62Z"/>
    <path class="cls-50" d="M135.73,297.31c-.37,0-.67-.12-.92-.39-.28-.26-.4-.56-.4-.93v-3.12h2.62v1.82h4.64v-4.64h-5.93c-.37,0-.68-.12-.93-.37-.27-.27-.39-.58-.39-.95v-7.25c0-.36.13-.66.39-.93.25-.25.55-.37.93-.37h7.25c.36,0,.67.12.93.38.24.25.36.56.36.92v3.14h-2.62v-1.82h-4.64v4.64h5.96c.36,0,.67.12.93.38.24.25.36.56.36.92v7.25c0,.37-.12.68-.37.92-.27.27-.57.4-.93.4h-7.25Z"/>
    <path class="cls-61" d="M155.67,285.12v-1.82h-3.64v3.64h5.46c.49,0,.92.17,1.28.52.34.36.52.79.52,1.28v7.25c0,.51-.17.93-.52,1.28-.36.36-.79.54-1.28.54h-7.25c-.51,0-.93-.18-1.28-.54-.36-.34-.54-.77-.54-1.28v-3.62h3.62v1.82h3.64v-3.64h-5.43c-.51,0-.93-.17-1.28-.52s-.54-.79-.54-1.3v-7.25c0-.49.18-.92.54-1.28.34-.34.77-.52,1.28-.52h7.25c.49,0,.92.17,1.28.52.34.36.52.79.52,1.28v3.64h-3.62Z"/>
    <path class="cls-18" d="M150.23,297.31c-.37,0-.67-.12-.92-.39-.28-.26-.4-.56-.4-.93v-3.12h2.62v1.82h4.64v-4.64h-5.93c-.37,0-.68-.12-.93-.37-.27-.27-.39-.58-.39-.95v-7.25c0-.36.13-.66.39-.93.25-.25.55-.37.93-.37h7.25c.36,0,.67.12.93.38.24.25.36.56.36.92v3.14h-2.62v-1.82h-4.64v4.64h5.96c.36,0,.67.12.93.38.24.25.36.56.36.92v7.25c0,.37-.12.68-.37.92-.27.27-.57.4-.93.4h-7.25Z"/>
    <path class="cls-63" d="M166.54,283.31v3.64h5.46v3.62h-5.46v3.64h7.25v3.62h-10.87v-18.12h10.87v3.61h-7.25Z"/>
    <polygon class="cls-19" points="163.42 297.31 163.42 280.19 173.29 280.19 173.29 282.81 166.04 282.81 166.04 287.44 171.5 287.44 171.5 290.06 166.04 290.06 166.04 294.7 173.29 294.7 173.29 297.31 163.42 297.31"/>
    <path class="cls-2" d="M184.69,285.12v-1.82h-3.64v3.64h5.46c.49,0,.92.17,1.28.52.34.36.52.79.52,1.28v7.25c0,.51-.17.93-.52,1.28-.36.36-.79.54-1.28.54h-7.25c-.51,0-.93-.18-1.28-.54-.36-.34-.54-.77-.54-1.28v-3.62h3.62v1.82h3.64v-3.64h-5.43c-.51,0-.93-.17-1.28-.52s-.54-.79-.54-1.3v-7.25c0-.49.18-.92.54-1.28.34-.34.77-.52,1.28-.52h7.25c.49,0,.92.17,1.28.52.34.36.52.79.52,1.28v3.64h-3.62Z"/>
    <path class="cls-53" d="M179.25,297.31c-.37,0-.67-.12-.92-.39-.28-.26-.4-.56-.4-.93v-3.12h2.62v1.82h4.64v-4.64h-5.93c-.37,0-.68-.12-.93-.37-.27-.27-.39-.58-.39-.95v-7.25c0-.36.13-.66.39-.93.25-.25.55-.37.93-.37h7.25c.36,0,.67.12.93.38.24.25.36.56.36.92v3.14h-2.62v-1.82h-4.64v4.64h5.96c.36,0,.67.12.93.38.24.25.36.56.36.92v7.25c0,.37-.12.68-.37.92-.27.27-.57.4-.93.4h-7.25Z"/>
    <path class="cls-1" d="M200.74,290.77v1.86h.93v1.85h-.93c-.25,0-.47-.09-.65-.28-.18-.18-.26-.39-.26-.65,0,.26-.09.48-.28.65-.18.18-.39.28-.65.28h-2.78c-.26,0-.48-.09-.65-.28-.19-.18-.28-.39-.28-.65v-2.78c0-.26.09-.48.28-.65.18-.18.39-.28.65-.28-.26,0-.48-.09-.65-.26-.19-.18-.28-.4-.28-.65v-2.79c0-.25.09-.47.28-.65.18-.18.39-.26.65-.26h2.78v1.85h-1.86v1.86h1.86v-.93h1.85v.93h.93v1.85h-.93ZM198.89,290.77h-1.86v1.86h1.86v-1.86Z"/>
    <path class="cls-74" d="M200.74,293.98c-.12,0-.21-.04-.3-.13-.08-.08-.12-.17-.12-.3h-1c0,.12-.04.21-.12.29-.1.1-.19.14-.31.14h-2.78c-.12,0-.21-.04-.29-.12-.1-.1-.14-.19-.14-.31v-2.78c0-.12.04-.21.12-.29.1-.1.19-.14.31-.14v-1c-.13,0-.22-.04-.3-.12-.09-.09-.13-.18-.13-.3v-2.79c0-.12.04-.21.13-.3.08-.08.17-.12.3-.12h2.28v.85h-1.86v2.86h2.86v-.93h.85v.93h.93v.85h-.93v2.86h.93v.85h-.43ZM196.52,293.13h2.86v-2.86h-2.86v2.86Z"/>
    <path class="cls-57" d="M217.61,288.74c.49,0,.92.18,1.28.54.34.34.52.77.52,1.28v5.44c0,.51-.17.93-.52,1.28-.36.36-.79.54-1.28.54h-9.07v-18.12h9.07c.49,0,.92.17,1.28.52.34.36.52.79.52,1.28v5.46c0,.49-.17.92-.52,1.28-.36.34-.79.52-1.28.52ZM212.16,286.94h3.64v-3.64h-3.64v3.64ZM212.16,294.2h3.64v-3.64h-3.64v3.64Z"/>
    <path class="cls-80" d="M209.04,297.31v-17.12h8.57c.36,0,.67.12.93.38.24.25.36.56.36.92v5.46c0,.36-.12.67-.38.93-.25.24-.56.36-.92.36v1c.36,0,.66.13.93.4.25.25.37.55.37.92v5.44c0,.37-.12.68-.37.92-.27.27-.57.4-.93.4h-8.57ZM211.66,294.7h4.64v-4.64h-4.64v4.64ZM211.66,287.44h4.64v-4.64h-4.64v4.64Z"/>
    <path class="cls-64" d="M226.67,283.31v3.64h5.46v3.62h-5.46v3.64h7.25v3.62h-10.87v-18.12h10.87v3.61h-7.25Z"/>
    <polygon class="cls-55" points="223.55 297.31 223.55 280.19 233.42 280.19 233.42 282.81 226.16 282.81 226.16 287.44 231.62 287.44 231.62 290.06 226.16 290.06 226.16 294.7 233.42 294.7 233.42 297.31 223.55 297.31"/>
    <path class="cls-69" d="M250.64,279.69c-2.21,4.43-3.87,7.75-4.97,9.96v8.16h-3.64v-8.16c-2.49-4.98-4.15-8.3-4.97-9.96h4.06c1.36,2.93,2.27,4.89,2.73,5.88,1.36-2.93,2.27-4.89,2.73-5.88h4.06Z"/>
    <path class="cls-43" d="M242.54,297.31v-7.78l-.05-.11c-2.17-4.34-3.71-7.42-4.61-9.24h2.93c1.29,2.77,3.05,6.56,3.05,6.56,0,0,2.56-5.51,3.05-6.56h2.93c-2.03,4.07-3.57,7.15-4.61,9.24l-.05.1v7.78h-2.64Z"/>
    <path class="cls-77" d="M264.64,281.49v14.51c0,.51-.17.93-.52,1.28-.36.36-.79.54-1.28.54h-7.25c-.51,0-.93-.18-1.28-.54-.36-.34-.54-.77-.54-1.28v-14.51c0-.49.18-.92.54-1.28.34-.34.77-.52,1.28-.52h7.25c.49,0,.92.17,1.28.52.34.36.52.79.52,1.28ZM257.38,294.2h3.64v-10.89h-3.64v10.89Z"/>
    <path class="cls-44" d="M255.59,297.31c-.37,0-.67-.12-.92-.39-.28-.26-.4-.56-.4-.93v-14.51c0-.36.13-.66.39-.93.25-.25.55-.37.93-.37h7.25c.36,0,.67.12.93.38.24.25.36.56.36.92v14.51c0,.37-.12.68-.37.92-.27.27-.57.4-.93.4h-7.25ZM256.88,294.7h4.64v-11.89h-4.64v11.89Z"/>
    <path class="cls-16" d="M279.15,281.49v16.33h-3.62v-14.51h-3.64v14.51h-3.62v-18.12h9.07c.49,0,.92.17,1.28.52.34.36.52.79.52,1.28Z"/>
    <path class="cls-32" d="M276.03,297.31v-14.51h-4.64v14.51h-2.62v-17.12h8.57c.36,0,.67.12.93.38.24.25.36.56.36.92v15.83h-2.62Z"/>
    <path class="cls-21" d="M293.66,281.49v14.51c0,.51-.17.93-.52,1.28-.36.36-.79.54-1.28.54h-9.07v-18.12h9.07c.49,0,.92.17,1.28.52.34.36.52.79.52,1.28ZM286.4,294.2h3.64v-10.89h-3.64v10.89Z"/>
    <path class="cls-4" d="M283.29,297.31v-17.12h8.57c.36,0,.67.12.93.38.24.25.36.56.36.92v14.51c0,.37-.12.68-.37.92-.27.27-.57.4-.93.4h-8.57ZM285.9,294.7h4.64v-11.89h-4.64v11.89Z"/>
  </g>
  <g id="Chronicle">
    <polygon class="cls-60" points="48.61 272.46 58.71 275.94 24.25 282.67 11.66 279.67 48.61 272.46"/>
    <path class="cls-60" d="M89.41,270.81l7.37,3.59c-1,.05-1.93.09-2.81.13s-1.68.08-2.43.11-1.43.07-2.06.1-1.18.06-1.68.08l-8.01-3.56c.53-.03,1.13-.06,1.8-.09s1.4-.07,2.2-.11,1.67-.08,2.61-.12,1.94-.09,3.01-.14Z"/>
    <path class="cls-60" d="M70.1,271.78l8.66,3.52c-1,.05-1.93.1-2.8.15s-1.68.09-2.43.14-1.43.08-2.06.12-1.18.07-1.68.1l-9.31-3.49c.53-.03,1.13-.07,1.8-.11s1.4-.08,2.2-.13,1.67-.09,2.6-.15,1.94-.11,3-.16Z"/>
    <path class="cls-60" d="M128.02,269.33l4.78,3.69c-.5.01-1.06.03-1.68.05s-1.31.04-2.06.06-1.56.05-2.43.08-1.81.06-2.8.09l-5.42-3.67c1.07-.04,2.07-.07,3-.1s1.8-.06,2.61-.08,1.54-.05,2.21-.07,1.27-.04,1.8-.05Z"/>
    <path class="cls-60" d="M108.71,269.99l6.07,3.64c-.5.02-1.06.04-1.68.06s-1.31.05-2.06.08-1.56.06-2.43.1-1.81.07-2.81.12l-6.72-3.62c1.07-.05,2.07-.09,3.01-.13s1.8-.07,2.61-.11,1.54-.06,2.2-.09,1.27-.05,1.8-.07Z"/>
    <path class="cls-60" d="M166.32,266.11l2.21,3.9c-.06.1-.12.2-.19.29s-.14.19-.22.28-.16.18-.25.27-.18.17-.28.25c-.23.19-.47.36-.72.51s-.51.27-.78.37-.55.18-.83.23-.58.08-.89.09c-1.01.01-2.14.03-3.39.05s-2.63.05-4.13.08-3.13.06-4.87.1-3.62.08-5.61.12c-.01,0-.03,0-.04,0s-.03,0-.04,0-.03,0-.04,0-.03,0-.04,0c-.3,0-.58-.02-.86-.07s-.53-.11-.77-.2-.48-.2-.69-.34-.42-.29-.61-.47l-4.02-3.79c.2.19.42.36.66.5s.48.26.74.36.54.17.83.22.6.07.92.07c.01,0,.03,0,.04,0s.03,0,.04,0,.03,0,.04,0,.03,0,.04,0c2.14-.05,4.14-.09,6.02-.13s3.61-.07,5.22-.11,3.09-.06,4.43-.08,2.56-.04,3.64-.06c.33,0,.64-.04.95-.09s.6-.14.89-.24.57-.24.83-.39.53-.34.77-.55c.11-.09.21-.18.3-.27s.18-.19.27-.29.16-.2.23-.3.14-.21.2-.31"/>
    <polygon class="cls-60" points="386.77 279.67 374.19 282.67 339.18 275.94 349.24 272.46 386.77 279.67"/>
    <path class="cls-60" d="M340.45,272.46l-9.48,3.48c-1.99-.12-3.86-.23-5.61-.33s-3.37-.19-4.87-.27-2.88-.16-4.13-.22-2.38-.12-3.39-.17c-1-.05-1.93-.1-2.81-.15s-1.68-.08-2.43-.12-1.43-.07-2.06-.1-1.18-.06-1.68-.08l7.54-3.58c.53.02,1.13.05,1.8.08s1.4.07,2.2.11,1.67.08,2.61.13,1.94.1,3.01.16c1.08.05,2.29.12,3.63.19s2.82.15,4.43.24,3.35.19,5.22.29,3.88.23,6.02.35Z"/>
    <path class="cls-60" d="M301.85,270.48l-6.89,3.61c-2.25-.1-4.31-.19-6.19-.26s-3.56-.14-5.06-.2-2.82-.11-3.94-.15-2.07-.07-2.82-.1c-.83-.03-1.6-.06-2.3-.08s-1.32-.05-1.88-.06-1.05-.04-1.47-.05-.78-.02-1.06-.03c-.29-.01-.55-.02-.78-.03s-.45-.01-.64-.02-.35-.01-.49-.02-.26,0-.35-.01l4.94-3.68c.1,0,.22,0,.37.01s.33.01.53.02.43.01.68.02.53.02.84.03c.31,0,.69.02,1.14.04s.98.03,1.58.05,1.27.04,2.02.07,1.57.05,2.46.09c.81.03,1.82.06,3.03.1s2.62.09,4.23.16,3.42.13,5.43.21,4.22.18,6.63.28Z"/>
    <path class="cls-60" d="M261.79,267.81c-1.4,1.26-2.8,2.53-4.2,3.79,0,0,0,0,0,0s0,0,0,0,0,0,0,0,0,0,0,0c-.2.18-.41.34-.63.47s-.46.25-.7.34-.5.16-.77.2-.54.07-.83.07c-.01,0-.03,0-.04,0s-.03,0-.04,0-.03,0-.04,0-.03,0-.04,0c-1.01-.02-2.14-.05-3.4-.08s-2.63-.06-4.13-.09-3.13-.07-4.87-.1-3.62-.07-5.61-.1c-.32,0-.62-.04-.92-.09s-.57-.13-.84-.23-.53-.22-.77-.37-.48-.32-.7-.51l2.45-3.82c.24.21.49.39.75.55s.54.29.83.39.59.19.9.24.64.09.98.09c2.14.04,4.14.07,6.02.11s3.61.07,5.22.11,3.09.07,4.43.1,2.56.06,3.64.08c.01,0,.03,0,.04,0s.03,0,.04,0,.03,0,.04,0,.03,0,.04,0c.31,0,.6-.02.89-.07s.56-.12.82-.22.51-.22.75-.36.47-.31.68-.51c0,0,0,0,0,0s0,0,0,0,0,0,0,0,0,0,0,0Z"/>
    <path class="cls-60" d="M224.6,268.4l-1.7,3.75c-.37,0-.83,0-1.39-.02s-1.21-.01-1.96-.02-1.59-.01-2.53-.02-1.97-.01-3.1-.02l1.06-3.76c1.21,0,2.32.01,3.33.02s1.91.02,2.71.02,1.5.01,2.1.02,1.09.01,1.49.02Z"/>
    <path class="cls-60" d="M205.28,268.27l-.41,3.76c-.35,0-.74,0-1.15,0s-.86,0-1.34,0-.99,0-1.53,0-1.11,0-1.71,0c-.25,0-.5,0-.76,0s-.53,0-.8,0-.55,0-.83,0-.57,0-.86,0l-.24-3.76c.31,0,.62,0,.92,0s.6,0,.89,0,.57,0,.85,0,.55,0,.82,0c.65,0,1.26,0,1.84,0s1.12,0,1.64,0,.99,0,1.44,0,.86,0,1.24,0Z"/>
    <path class="cls-60" d="M185.96,268.3l.89,3.76c-.5,0-1.06,0-1.68,0s-1.31,0-2.06.01-1.56.01-2.43.02-1.81.02-2.8.02l-1.53-3.75c1.07,0,2.07-.02,3-.03s1.8-.01,2.61-.02,1.54-.01,2.21-.02,1.27,0,1.8,0Z"/>
    <path class="cls-66" d="M52.16,218.1c.38,0,.74.03,1.08.1s.67.16.97.3.59.29.86.49.52.42.76.68c.22.27.4.56.55.85s.26.61.34.93.12.66.13,1-.02.71-.08,1.08c-.1.62-.22,1.32-.34,2.09s-.27,1.61-.42,2.53-.32,1.91-.5,2.98-.37,2.21-.57,3.42c-.63.01-1.34.03-2.13.04s-1.65.03-2.6.05-1.97.04-3.07.06-2.28.05-3.54.07c.06-.31.12-.67.19-1.06s.14-.82.23-1.28.17-.97.27-1.51.2-1.12.31-1.74c-.63,0-1.33.02-2.12.03s-1.65.03-2.6.04-1.97.03-3.07.05-2.29.03-3.55.05c-.35,1.89-.75,4.02-1.19,6.38s-.92,4.96-1.45,7.79-1.1,5.9-1.71,9.21-1.28,6.85-1.98,10.63c.66-.04,1.4-.09,2.23-.13s1.72-.1,2.7-.16,2.04-.12,3.18-.18,2.36-.13,3.66-.21c.06-.31.12-.67.19-1.06s.14-.82.23-1.29.17-.97.27-1.52.2-1.12.31-1.74c.64-.03,1.37-.07,2.18-.1s1.69-.08,2.66-.12,2.02-.09,3.15-.14,2.34-.11,3.63-.17c-.1.61-.31,1.87-.57,3.42s-.58,3.4-.88,5.2-.6,3.53-.83,4.87-.39,2.26-.41,2.43l-36.95,7.21c.05-.24.35-1.59.8-3.58s1.03-4.64,1.65-7.5,1.29-5.93,1.89-8.76,1.14-5.44,1.52-7.36c.16-.79.32-1.64.5-2.53s.36-1.83.55-2.82.4-2.02.61-3.11.43-2.22.67-3.4c.24-1.21.48-2.46.74-3.77s.52-2.66.79-4.06.56-2.85.85-4.35.6-3.05.91-4.64c.04-.21.09-.42.15-.62s.13-.4.21-.6.17-.39.26-.57.2-.37.32-.55c.1-.15.21-.31.32-.45s.23-.29.36-.44.26-.28.4-.42.28-.27.44-.4c.32-.27.65-.51.98-.72s.68-.37,1.04-.51.72-.24,1.09-.3.75-.1,1.15-.1h22.33Z"/>
    <path class="cls-66" d="M52.16,218.1c.38,0,.74.03,1.08.1s.67.16.97.3.59.29.86.49.52.42.76.68c.22.27.4.56.55.85s.26.61.34.93.12.66.13,1-.02.71-.08,1.08c-.1.62-.22,1.32-.34,2.09s-.27,1.61-.42,2.53-.32,1.91-.5,2.98-.37,2.21-.57,3.42c-.63.01-1.34.03-2.13.04s-1.65.03-2.6.05-1.97.04-3.07.06-2.28.05-3.54.07c.06-.31.12-.67.19-1.06s.14-.82.23-1.28.17-.97.27-1.51.2-1.12.31-1.74c-.63,0-1.33.02-2.12.03s-1.65.03-2.6.04-1.97.03-3.07.05-2.29.03-3.55.05c-.35,1.89-.75,4.02-1.19,6.38s-.92,4.96-1.45,7.79-1.1,5.9-1.71,9.21-1.28,6.85-1.98,10.63c.66-.04,1.4-.09,2.23-.13s1.72-.1,2.7-.16,2.04-.12,3.18-.18,2.36-.13,3.66-.21c.06-.31.12-.67.19-1.06s.14-.82.23-1.29.17-.97.27-1.52.2-1.12.31-1.74c.64-.03,1.37-.07,2.18-.1s1.69-.08,2.66-.12,2.02-.09,3.15-.14,2.34-.11,3.63-.17c-.1.61-.31,1.87-.57,3.42s-.58,3.4-.88,5.2-.6,3.53-.83,4.87-.39,2.26-.41,2.43l-36.95,7.21c.05-.24.35-1.59.8-3.58s1.03-4.64,1.65-7.5,1.29-5.93,1.89-8.76,1.14-5.44,1.52-7.36c.16-.79.32-1.64.5-2.53s.36-1.83.55-2.82.4-2.02.61-3.11.43-2.22.67-3.4c.24-1.21.48-2.46.74-3.77s.52-2.66.79-4.06.56-2.85.85-4.35.6-3.05.91-4.64c.04-.21.09-.42.15-.62s.13-.4.21-.6.17-.39.26-.57.2-.37.32-.55c.1-.15.21-.31.32-.45s.23-.29.36-.44.26-.28.4-.42.28-.27.44-.4c.32-.27.65-.51.98-.72s.68-.37,1.04-.51.72-.24,1.09-.3.75-.1,1.15-.1h22.33Z"/>
    <path class="cls-66" d="M94.82,227.96c-.24,1.9-.46,3.67-.67,5.34s-.4,3.21-.58,4.64-.35,2.74-.5,3.93-.29,2.27-.41,3.22c-.12.95-.23,1.84-.33,2.67s-.2,1.6-.29,2.32-.17,1.36-.25,1.96-.14,1.13-.2,1.6c-.24,1.91-.47,3.7-.68,5.37s-.41,3.22-.59,4.65-.35,2.74-.5,3.93-.29,2.26-.41,3.21c-1.07.05-2.07.1-3.01.14s-1.8.08-2.61.12-1.54.07-2.2.11-1.27.06-1.8.09c.26-1.93.51-3.74.74-5.42s.44-3.25.64-4.69.38-2.76.54-3.96.31-2.28.44-3.24c-1.05.04-2.03.07-2.95.1s-1.77.06-2.57.09-1.52.06-2.18.08-1.26.05-1.8.07c-.28,1.94-.55,3.77-.8,5.47s-.48,3.28-.69,4.74-.41,2.79-.58,4.01-.34,2.31-.48,3.28c-1.07.06-2.07.11-3,.16s-1.8.1-2.6.15-1.54.09-2.2.13-1.27.07-1.8.11c.17-1.1.33-2.15.49-3.16s.31-1.97.45-2.89.28-1.79.41-2.62.25-1.61.36-2.35c.11-.74.22-1.43.32-2.08s.19-1.25.28-1.8.17-1.06.24-1.52.14-.88.2-1.24c.17-1.11.33-2.12.47-3.04s.27-1.74.38-2.48.21-1.37.3-1.92.16-1,.21-1.36c.34-2.21.66-4.24.94-6.08s.54-3.49.77-4.96.43-2.75.6-3.85.31-2.01.43-2.74c1.15-.01,2.21-.03,3.16-.04s1.82-.02,2.58-.03,1.43-.02,1.99-.02,1.04-.01,1.41-.02c-.32,2.18-.61,4.18-.87,5.99s-.5,3.45-.72,4.91-.4,2.73-.56,3.82-.29,2-.4,2.73c1.18-.03,2.25-.06,3.23-.09s1.86-.05,2.65-.07,1.47-.04,2.06-.06,1.08-.03,1.47-.04c.3-2.17.57-4.16.81-5.96s.47-3.43.66-4.87.37-2.7.51-3.77.27-1.97.37-2.68c1.02-.01,1.97-.02,2.86-.03s1.71-.02,2.48-.02,1.46-.01,2.1-.02,1.21-.01,1.71-.02Z"/>
    <path class="cls-66" d="M130.14,228.89c.2.2.37.42.52.64s.26.46.35.7.15.5.18.76.03.54,0,.82c-.06.7-.12,1.48-.2,2.35s-.15,1.83-.24,2.87-.18,2.17-.29,3.39-.21,2.52-.33,3.92c-.02.28-.07.56-.15.82s-.18.52-.31.77-.29.49-.48.71-.4.45-.64.66c-.25.2-.51.38-.78.53s-.54.28-.83.39-.58.18-.88.24-.61.08-.93.09c.01,0,.02,0,.03,0s.02,0,.03,0,.02,0,.03,0,.02,0,.03,0c.31,0,.6.02.88.07s.55.12.81.22.5.22.74.37.45.32.66.52c.21.19.38.4.53.62s.27.45.36.69.15.5.19.77.04.55.02.84c-.08.92-.17,1.96-.27,3.12s-.21,2.43-.32,3.82-.24,2.9-.38,4.52-.29,3.37-.44,5.22c-.53.02-1.13.03-1.8.05s-1.4.04-2.21.07-1.67.05-2.61.08-1.94.06-3,.1c.09-.93.19-1.98.3-3.14s.23-2.45.37-3.84.28-2.91.43-4.55.32-3.38.5-5.25c-.52.01-1.12.02-1.77.04s-1.38.03-2.17.05-1.65.04-2.57.06-1.92.05-2.97.08c-.1.93-.21,1.99-.34,3.16s-.26,2.46-.41,3.87-.31,2.94-.49,4.58-.36,3.41-.56,5.29c-.53.02-1.13.04-1.8.07s-1.4.05-2.2.09-1.67.07-2.61.11-1.94.08-3.01.13c.11-.94.23-2,.37-3.19s.29-2.48.45-3.9.34-2.96.54-4.61.4-3.43.62-5.33c.06-.47.12-1,.19-1.59s.14-1.24.23-1.94.17-1.47.27-2.3.2-1.71.31-2.65c.06-.47.11-.97.18-1.5s.13-1.09.2-1.68.14-1.21.22-1.86.16-1.33.24-2.04c.08-.71.17-1.45.26-2.22s.18-1.56.28-2.39.2-1.68.3-2.56.21-1.8.32-2.74c.51,0,1.08,0,1.71-.01s1.33,0,2.1-.02,1.59-.01,2.48-.02,1.84-.01,2.86-.02c.77,0,1.63-.01,2.59-.02s2.02-.01,3.17-.02,2.4-.02,3.74-.02,2.78-.02,4.32-.03c.32,0,.62.02.9.07s.56.12.82.22.51.22.74.36.46.32.67.51ZM120.94,243.03c.04-.39.08-.82.12-1.31s.1-1.01.15-1.59.11-1.2.18-1.88.13-1.39.21-2.16c-.52,0-1.09.01-1.74.02s-1.35.02-2.13.03-1.62.02-2.52.03-1.88.02-2.92.04c-.05.47-.1.99-.17,1.58s-.13,1.23-.2,1.94-.15,1.47-.24,2.3-.18,1.71-.28,2.65c.53-.01,1.12-.02,1.78-.04s1.38-.03,2.16-.04,1.63-.03,2.54-.05,1.88-.03,2.92-.05c0-.09.02-.18.03-.28s.02-.22.03-.34.03-.26.04-.4.03-.29.05-.45"/>
    <path class="cls-66" d="M166.91,228.7c.21.2.39.42.55.64s.28.45.38.69.17.49.21.75.06.52.05.8c-.07,1.82-.15,3.87-.24,6.15s-.19,4.78-.3,7.51-.22,5.69-.35,8.88-.26,6.6-.4,10.25c-.01.29-.05.56-.12.83s-.16.52-.29.76-.28.47-.46.7-.39.43-.63.63c-.25.21-.51.39-.77.55s-.55.29-.83.39-.59.19-.89.24-.62.09-.95.09c-1.08.02-2.29.03-3.64.06s-2.82.05-4.43.08-3.35.07-5.22.11-3.88.08-6.02.13c-.01,0-.03,0-.04,0s-.03,0-.04,0-.03,0-.04,0-.03,0-.04,0c-.32,0-.63-.02-.92-.07s-.57-.12-.83-.22-.51-.22-.74-.36-.45-.31-.66-.5c-.22-.19-.42-.39-.58-.61s-.3-.44-.4-.69-.17-.49-.21-.76-.05-.54-.02-.83c.05-.7.11-1.48.17-2.34s.13-1.82.21-2.86.16-2.17.25-3.38.18-2.51.29-3.9c.04-.57.09-1.18.13-1.82s.1-1.32.15-2.03.11-1.46.17-2.24.12-1.6.18-2.45c.06-.87.13-1.78.2-2.72s.14-1.92.21-2.93.15-2.06.23-3.14.16-2.2.25-3.35c.02-.28.07-.55.15-.81s.18-.51.31-.76.29-.48.48-.7.4-.44.65-.65c.23-.2.48-.37.73-.52s.52-.27.8-.37.56-.17.86-.22.61-.08.93-.08c1.02,0,2.16,0,3.44-.02s2.68-.01,4.21-.02,3.19-.01,4.97-.02,3.7-.01,5.74-.02c.31,0,.61.02.9.07s.57.12.83.22.52.22.76.36.47.31.69.51ZM157.53,258.82c.07-1.28.14-2.73.22-4.33s.17-3.37.27-5.29.2-4.01.32-6.25.24-4.64.37-7.2c-.51,0-1.09,0-1.74,0s-1.35,0-2.13.01-1.62.01-2.52.02-1.88.01-2.91.02c-.04.69-.09,1.47-.15,2.33s-.11,1.8-.18,2.83-.13,2.14-.21,3.34-.15,2.48-.24,3.85c-.04.69-.09,1.47-.15,2.33s-.11,1.81-.18,2.85-.14,2.16-.21,3.37-.16,2.5-.24,3.88c.54-.01,1.15-.02,1.82-.04s1.41-.03,2.21-.04,1.67-.03,2.59-.04,1.92-.03,2.98-.05c0-.09,0-.2.02-.31s.01-.24.02-.37.01-.28.02-.44.02-.32.03-.5"/>
    <path class="cls-66" d="M368.94,218.1c.38,0,.75.03,1.12.1s.73.17,1.08.3.7.31,1.05.51.68.44,1.01.72c.32.28.61.58.87.89s.49.64.69.97.37.69.5,1.05.24.74.32,1.13c.13.65.27,1.37.43,2.18s.33,1.69.52,2.65.39,2,.61,3.11c.22,1.12.45,2.31.7,3.58-.63-.01-1.34-.03-2.13-.05s-1.65-.04-2.6-.06-1.97-.05-3.07-.07-2.28-.05-3.54-.08c-.06-.32-.12-.68-.2-1.07s-.15-.83-.24-1.3-.18-.98-.29-1.53-.21-1.14-.33-1.76c-.63,0-1.33-.02-2.12-.03s-1.65-.03-2.6-.04-1.97-.03-3.08-.05-2.29-.03-3.56-.05c.11.62.23,1.31.37,2.09s.29,1.63.45,2.56.34,1.94.53,3.03.4,2.26.62,3.5c.96.03,2.04.06,3.23.09s2.51.07,3.95.12,2.99.09,4.67.14,3.47.11,5.38.17c.39.01.77.06,1.14.13s.74.19,1.11.34.72.33,1.07.54.69.46,1.03.75c.33.29.62.6.89.92s.5.65.7.99.37.7.51,1.06.25.74.32,1.13c.25,1.29.77,3.9,1.43,7.11.65,3.22,1.43,7.04,2.19,10.74.76,3.71,1.49,7.29,2.05,10.04.56,2.75.96,4.66,1.03,5.01l-37.53-7.21-1.85-15.91c.08,0,.52.02,1.23.05s1.66.07,2.77.13,2.37.11,3.68.17,2.66.13,3.95.19c.05.3.11.65.18,1.03s.14.81.23,1.28.17.97.27,1.52.2,1.14.31,1.77c.66.04,1.41.08,2.23.13s1.72.1,2.7.15,2.04.12,3.18.18,2.36.14,3.66.22c-.12-.64-.25-1.36-.4-2.15s-.31-1.67-.49-2.61-.37-1.97-.57-3.07-.42-2.28-.66-3.53c-.97-.04-2.06-.09-3.27-.15s-2.54-.11-3.98-.17-3.01-.13-4.7-.2-3.49-.15-5.42-.22c-.41-.02-.8-.06-1.18-.14s-.76-.19-1.12-.34-.71-.32-1.06-.53-.67-.45-.99-.72c-.33-.28-.63-.58-.9-.89s-.5-.63-.69-.97-.36-.68-.49-1.04-.23-.73-.29-1.12c-.1-.61-.21-1.26-.32-1.94s-.23-1.41-.36-2.18-.26-1.57-.4-2.41-.28-1.72-.44-2.64c-.15-.92-.31-1.87-.48-2.87s-.34-2.02-.51-3.09c-.18-1.07-.36-2.17-.55-3.31s-.39-2.32-.59-3.54c-.06-.37-.08-.73-.07-1.08s.06-.68.15-1,.21-.63.37-.93.35-.58.59-.86c.22-.26.46-.49.73-.68s.55-.36.85-.49.63-.23.98-.3.72-.1,1.11-.1h22.33Z"/>
    <path class="cls-66" d="M306.01,227.98c1.15.01,2.2.02,3.16.03s1.82.02,2.58.03,1.43.01,1.99.02,1.04,0,1.41.01c2.3.02,4.41.05,6.33.07s3.64.04,5.17.06,2.87.03,4.01.05,2.1.02,2.85.03c.17,1.1.33,2.1.47,3.02s.27,1.74.39,2.47c.11.73.21,1.38.3,1.93s.16,1.01.22,1.38c-2.05-.04-3.98-.09-5.78-.12s-3.47-.07-5.02-.1-2.96-.06-4.25-.08-2.45-.04-3.49-.06c.13.96.26,1.86.37,2.7s.22,1.62.32,2.35.19,1.39.28,2,.16,1.15.23,1.64c1.57.04,3.03.08,4.41.12s2.64.08,3.82.11,2.25.07,3.23.09,1.86.05,2.64.08c.15.97.29,1.89.42,2.74s.25,1.64.36,2.38.21,1.4.31,2.01.18,1.16.25,1.65c-1.58-.06-3.07-.12-4.45-.17s-2.67-.1-3.86-.15-2.28-.08-3.26-.12-1.88-.07-2.67-.09c.13.96.26,1.86.37,2.7s.22,1.63.32,2.35.19,1.39.28,2,.16,1.16.23,1.65c2.13.09,4.12.18,5.98.26s3.59.16,5.18.24,3.05.14,4.38.21,2.52.12,3.58.18c.15.98.3,1.9.43,2.76s.26,1.66.38,2.39.22,1.41.32,2.02.18,1.17.26,1.66c-2.14-.13-4.14-.25-6.02-.35s-3.61-.21-5.22-.29-3.08-.17-4.43-.24-2.55-.13-3.63-.19c-1.07-.06-2.07-.11-3.01-.16s-1.8-.09-2.61-.13-1.54-.07-2.2-.11-1.27-.06-1.8-.08c-.06-.47-.12-.94-.18-1.38s-.11-.88-.17-1.3-.11-.82-.16-1.21-.1-.76-.14-1.12-.09-.7-.13-1.03-.08-.64-.12-.94-.07-.58-.11-.84-.06-.52-.09-.75c-.14-1.08-.27-2.06-.38-2.96s-.22-1.71-.31-2.43-.17-1.35-.24-1.89-.13-.99-.17-1.35c-.14-1.08-.26-2.06-.38-2.96s-.22-1.7-.31-2.41-.17-1.34-.24-1.87-.12-.97-.17-1.32c-.14-1.08-.27-2.06-.38-2.96s-.22-1.7-.31-2.42-.17-1.35-.24-1.88-.13-.99-.17-1.35c-.14-1.07-.26-2.04-.38-2.93s-.22-1.69-.31-2.4-.17-1.34-.24-1.87-.13-.98-.17-1.34Z"/>
    <path class="cls-66" d="M269.28,227.7c1.15,0,2.21.01,3.17.02s1.82.01,2.58.02,1.43,0,2,.01,1.04,0,1.41.01c.41,4.19.78,8.03,1.12,11.52s.65,6.64.92,9.44c.27,2.8.51,5.25.72,7.35.21,2.1.38,3.86.51,5.26,2.13.06,4.12.12,5.99.18s3.59.12,5.18.17,3.05.11,4.38.15,2.52.09,3.58.13c.13,1.06.24,2.03.35,2.91s.2,1.68.28,2.39.16,1.33.22,1.86.12.98.16,1.34c-2.41-.11-4.62-.2-6.63-.28s-3.82-.15-5.43-.21-3.02-.11-4.23-.16-2.22-.08-3.03-.1c-.89-.03-1.71-.06-2.46-.09s-1.42-.05-2.02-.07-1.13-.04-1.58-.05-.83-.03-1.14-.04c-.31-.01-.59-.02-.84-.03s-.48-.02-.68-.02-.38-.01-.53-.02-.27,0-.37-.01c-.23-2.61-.45-5.12-.65-7.51s-.41-4.68-.6-6.85c-.19-2.17-.37-4.24-.54-6.19s-.33-3.8-.48-5.53c-.15-1.74-.29-3.36-.42-4.88s-.26-2.93-.37-4.23c-.11-1.3-.22-2.49-.31-3.57s-.18-2.06-.26-2.92Z"/>
    <path class="cls-66" d="M237.17,227.55c1.02,0,2.16,0,3.43.01s2.68.01,4.21.02,3.19.01,4.98.02,3.7.02,5.75.03c.31,0,.61.03.91.08s.58.13.86.23.55.22.81.37.51.32.75.52c.23.21.44.42.62.65s.34.46.46.7.23.5.3.76.12.53.14.81c.03.47.07.99.12,1.58s.09,1.22.15,1.91.11,1.44.17,2.25.13,1.67.2,2.59c-.52,0-1.1-.01-1.74-.02s-1.36-.02-2.13-.02-1.61-.02-2.52-.03-1.87-.02-2.9-.03c-.01-.23-.03-.5-.05-.78s-.04-.61-.06-.95-.05-.72-.07-1.12-.05-.83-.09-1.29c-.51,0-1.09,0-1.74-.01s-1.35,0-2.13-.02-1.62-.01-2.52-.02-1.88-.01-2.91-.02c.07,1.38.15,2.92.25,4.64s.19,3.61.3,5.67.23,4.29.36,6.69.27,4.98.41,7.72c.54,0,1.15.02,1.81.03s1.4.02,2.2.03,1.66.03,2.59.04,1.92.03,2.98.05c-.02-.23-.03-.49-.05-.78s-.04-.61-.06-.95-.05-.72-.07-1.12-.05-.83-.08-1.29c.53,0,1.12.02,1.78.03s1.38.03,2.17.04,1.65.03,2.57.05,1.91.04,2.96.06c.03.46.07.98.12,1.55s.09,1.21.14,1.9.11,1.44.17,2.24.13,1.67.2,2.59c.02.29.02.57-.02.83s-.1.52-.2.76-.22.47-.38.69-.34.42-.55.61c-.21.19-.44.36-.68.51s-.49.26-.75.36-.54.17-.82.22-.58.07-.89.07c-.01,0-.03,0-.04,0s-.03,0-.04,0-.03,0-.04,0-.03,0-.04,0c-1.08-.02-2.29-.05-3.64-.08s-2.82-.06-4.43-.1-3.35-.07-5.22-.11-3.88-.07-6.02-.11c-.34,0-.67-.04-.98-.09s-.62-.14-.9-.24-.56-.24-.83-.39-.51-.34-.75-.55c-.25-.2-.47-.41-.66-.63s-.35-.45-.48-.7-.23-.5-.3-.76-.11-.54-.12-.83c-.03-.69-.06-1.46-.1-2.32s-.08-1.8-.12-2.83-.09-2.14-.14-3.34-.11-2.49-.16-3.86c-.02-.57-.05-1.17-.07-1.8s-.05-1.31-.08-2.01-.06-1.44-.09-2.22-.07-1.58-.1-2.42c-.04-.86-.08-1.76-.11-2.69s-.08-1.9-.12-2.9-.09-2.03-.13-3.1-.09-2.17-.14-3.31c-.01-.28,0-.55.05-.81s.12-.51.23-.75.24-.47.4-.69.35-.43.57-.63c.21-.19.43-.36.67-.51s.49-.27.75-.36.54-.17.84-.22.6-.07.92-.07Z"/>
    <path class="cls-66" d="M214.2,227.5c.38,0,.86,0,1.43,0s1.24,0,2,0,1.62,0,2.57,0,2,0,3.14,0c.04,1.27.09,2.87.15,4.78s.13,4.15.21,6.7.17,5.43.26,8.63.2,6.72.32,10.55c.01.42.03.96.05,1.6s.04,1.38.07,2.24.06,1.81.09,2.88.07,2.24.11,3.51c-.39,0-.89-.01-1.49-.02s-1.3-.01-2.1-.02-1.71-.01-2.71-.02-2.12-.01-3.33-.02c-.02-.85-.03-1.81-.05-2.87s-.04-2.23-.07-3.51-.05-2.66-.08-4.15-.06-3.08-.09-4.78c-.03-1.7-.07-3.5-.1-5.41s-.07-3.93-.11-6.06-.08-4.36-.13-6.7-.09-4.79-.14-7.34Z"/>
    <path class="cls-66" d="M200.44,227.49c.31,0,.61.02.91.07s.57.12.84.22.53.22.78.36.49.32.72.51c.22.2.41.41.57.63s.3.45.41.69.2.49.25.75.09.52.09.8c.01,2.04.03,4.34.05,6.89s.04,5.36.06,8.42.05,6.38.07,9.95.05,7.4.08,11.48c-.38,0-.79,0-1.24,0s-.92,0-1.44,0-1.06,0-1.64,0-1.19,0-1.84,0c-.27,0-.54,0-.82,0s-.56,0-.85,0-.59,0-.89,0-.61,0-.92,0c0-1.82.02-3.86.03-6.13s.02-4.77.03-7.49.03-5.67.04-8.84.03-6.57.05-10.19c-.51,0-1.09,0-1.74,0s-1.35,0-2.13,0-1.62,0-2.52,0-1.88,0-2.92,0c-.03,1.82-.06,3.86-.1,6.13s-.08,4.76-.12,7.49-.09,5.67-.14,8.85-.11,6.58-.17,10.21c-.53,0-1.13,0-1.8,0s-1.4,0-2.21.02-1.67.01-2.61.02-1.94.02-3,.03c.03-1.14.06-2.35.1-3.63s.07-2.63.11-4.05.08-2.91.13-4.47.09-3.19.14-4.89c.05-1.7.1-3.47.15-5.32s.1-3.76.16-5.74.11-4.04.17-6.17.12-4.32.18-6.59c.51,0,1.08,0,1.71,0s1.33,0,2.1,0,1.59,0,2.48,0,1.84,0,2.86,0c.77,0,1.63,0,2.59,0s2.02,0,3.17,0,2.4,0,3.74,0,2.78,0,4.32,0Z"/>
    <path class="cls-54" d="M13.92,276.41c.44-2,1.03-4.65,1.65-7.51.62-2.86,1.29-5.93,1.89-8.77.6-2.84,1.15-5.45,1.52-7.39l5.61-28.68c.03-.16.07-.32.12-.48.05-.16.1-.32.16-.47.06-.15.13-.3.2-.44.08-.15.16-.29.25-.42.08-.13.16-.24.25-.36.09-.12.19-.24.29-.35.11-.12.22-.23.33-.35.12-.11.24-.23.37-.34.25-.21.51-.4.77-.56.26-.16.52-.29.79-.39.27-.1.54-.18.82-.23.28-.05.58-.08.88-.08h22.33c.28,0,.55.02.8.07.23.04.46.11.67.2.2.09.39.2.57.33.19.13.36.29.53.48.1.12.23.32.33.52.1.2.18.4.23.62.05.21.08.44.09.68,0,.25-.01.52-.06.79l-1.63,9.79-8.26.17.99-5.58-14.38.22-6.92,37.11,6.85-.41,8.03-.45.99-5.59,8.56-.4c-.08.48-2.22,13.05-2.22,13.05l-33.68,6.57c.09-.4.19-.86.3-1.35Z"/>
    <polygon class="cls-35" points="68.6 229.73 74.73 229.66 72.18 247.15 84.64 246.8 86.98 229.54 93.12 229.48 88.08 269.37 81.52 269.68 83.88 252.39 71.35 252.84 68.79 270.35 64.41 270.59 62.25 270.72 68.6 229.73"/>
    <path class="cls-78" d="M105.37,229.37l21.64-.15c.22,0,.44.02.65.05.19.03.38.08.55.15.16.06.32.14.47.23.16.1.3.21.44.34.08.08.18.22.27.35.08.13.15.26.2.4.05.14.08.28.1.43.02.16.02.33,0,.51l-1.06,12.53c-.02.19-.05.36-.1.53-.05.16-.11.33-.2.48-.09.16-.19.32-.32.48-.13.16-.29.32-.46.48-.14.11-.34.25-.54.36-.19.11-.4.2-.6.28-.2.07-.42.13-.63.17-.21.04-.43.06-.65.06l.04,3h.01c.28,0,.49.02.68.05.19.03.36.08.53.14s.32.14.47.24c.15.1.3.21.44.34.13.13.24.25.33.37.08.12.15.24.2.38.05.13.08.27.1.42.02.17.02.34,0,.53l-1.3,15.35-6.58.21,1.6-16.76-12.5.3-1.8,16.92-6.57.26,4.59-39.44ZM110.94,234.73l-1.21,11.49,8.17-.16,4.25-.08.28-2.79.45-4.79.37-3.82-12.32.16Z"/>
    <path class="cls-72" d="M142.43,267.44h-.04c-.24,0-.46-.02-.67-.05-.2-.03-.38-.08-.56-.14-.17-.06-.33-.14-.47-.23-.15-.09-.29-.2-.42-.32-.2-.17-.32-.29-.42-.42-.09-.12-.16-.23-.21-.36-.05-.13-.09-.26-.11-.4-.02-.15-.03-.31-.01-.49l2.18-29.83.25-3.35c.01-.18.04-.34.09-.51.04-.16.11-.31.19-.47.08-.15.19-.31.31-.46.13-.16.29-.32.47-.47.16-.13.33-.26.51-.36.18-.1.36-.19.55-.26.19-.07.39-.12.6-.16.22-.04.45-.06.69-.06l18.36-.07c.22,0,.44.02.65.05.2.03.39.08.56.15.18.06.35.14.5.24.17.1.33.21.48.35.09.09.21.23.31.37.1.14.17.27.23.41.05.13.1.28.12.42.03.15.04.31.03.49l-1.29,32.79c0,.18-.03.36-.07.52-.04.16-.1.31-.17.45-.07.15-.17.29-.28.43-.12.15-.26.29-.43.43-.18.15-.37.29-.57.4-.19.11-.39.21-.6.28-.2.07-.42.13-.64.18-.23.04-.47.06-.71.07l-3.63.06-4.44.08c-1.61.03-3.35.07-5.23.11-1.87.04-6.12.14-6.12.14h0ZM147.99,234.31l-.62,9.9-1.12,17.91,3.44-.07,9.19-.15.14-3.02,1.25-24.65-12.29.08Z"/>
    <path class="cls-46" d="M350.61,271.19l-1.52-13.06,5.91.27,2.75.13.98,5.59,9.3.53,5.57.33-2.68-14.43-4.46-.2-8.68-.37-5.42-.22c-.32-.01-.64-.05-.94-.11-.3-.06-.59-.15-.87-.26-.28-.11-.56-.25-.83-.42-.27-.17-.54-.36-.8-.58-.27-.23-.52-.47-.73-.72-.21-.24-.39-.49-.54-.75-.15-.25-.28-.52-.37-.79-.1-.27-.18-.56-.23-.86l-3.64-21.97c-.04-.27-.06-.53-.05-.78,0-.23.04-.46.1-.67.06-.21.14-.41.24-.61.11-.2.25-.4.41-.59.15-.17.31-.32.48-.45.17-.13.35-.23.55-.31.21-.09.43-.16.67-.2.25-.05.54-.07.83-.07h22.33c.29,0,.57.03.84.08.28.05.55.13.82.23.28.1.55.24.81.4.27.16.55.36.82.58.22.2.46.45.68.7.21.25.39.51.54.77.16.26.29.54.39.82.11.28.19.58.25.88l1.9,9.7-8.25-.2-1.06-5.68-14.39-.22,2.5,14.18,8.4.25,10.05.31c.3,0,.6.04.88.1.29.06.58.15.85.26.29.11.57.26.85.43.29.18.57.38.85.62.24.21.48.47.7.73.21.26.4.52.56.79.16.27.29.55.4.84.11.29.19.58.25.89.25,1.28.77,3.9,1.43,7.12.65,3.22,1.43,7.04,2.19,10.74l2.63,12.85-34.25-6.58Z"/>
    <path class="cls-40" d="M334.52,270.61c-1.87-.11-3.62-.21-5.23-.29l-4.43-.24-9.25-.47-2.75-.13-.85-6.57-.09-.74-4.21-32.66,7.43.07,17.09.19.9,5.77-9.01-.19-9.5-.17,1.61,11.68,14.12.4.88,5.74-6.5-.25-7.72-.27,1.61,11.71s5.37.23,7.23.32c1.86.08,3.58.16,5.18.24l6.73.33.91,5.78c-1.45-.09-2.84-.17-4.16-.24Z"/>
    <path class="cls-34" d="M295.27,268.7c-2.01-.08-3.82-.15-5.43-.21-1.61-.06-3.02-.11-4.23-.16l-9.09-.31-2.23-.07-3.37-38.73,6.15.04,3.28,33.54s5.44.16,7.3.22c1.86.06,3.58.12,5.18.17l6.67.24.65,5.48c-1.74-.08-3.36-.14-4.88-.21Z"/>
    <path class="cls-68" d="M250.41,267.31c-1.61-.03-3.35-.07-5.23-.11-1.88-.04-3.88-.07-6.02-.11-.26,0-.51-.03-.74-.07-.23-.04-.45-.1-.65-.17-.2-.07-.4-.17-.58-.27-.19-.11-.36-.24-.53-.39-.22-.18-.38-.33-.5-.48-.12-.14-.22-.28-.3-.43-.07-.14-.13-.29-.17-.44-.04-.16-.07-.32-.07-.5l-1.38-32.81c0-.17,0-.33.03-.48.03-.15.07-.28.13-.42.06-.13.14-.27.23-.4.11-.14.23-.28.38-.42.14-.13.29-.24.44-.33.15-.09.31-.17.48-.23.18-.06.37-.11.57-.15.21-.03.44-.05.68-.05l12.61.05,5.75.03c.23,0,.45.02.66.05.21.03.41.09.6.16.2.07.39.16.57.26.19.11.38.24.56.38.12.11.27.27.4.42.12.15.22.3.3.46.08.16.14.31.19.47.05.17.08.34.09.52l.51,6.69-6.26-.07-.27-4.15-12.29-.1,1.48,27.71,8.01.13,4.62.08-.17-2.38-.12-1.76,6.49.12.52,6.92c.02.19.01.36,0,.52-.02.14-.06.28-.11.41s-.12.25-.2.36c-.09.13-.2.25-.33.36-.16.14-.31.25-.46.35s-.32.17-.49.23c-.18.06-.36.11-.55.15-.21.03-.42.05-.64.05l-8.21-.18Z"/>
    <polygon class="cls-23" points="218.31 266.84 216.45 266.83 215.73 229 221.89 229.01 223.05 266.88 218.31 266.84"/>
    <path class="cls-42" d="M178.18,256.27l.76-27.26,21.51-.02c.23,0,.45.02.66.05.2.03.4.08.58.15.18.07.36.15.53.25.17.1.34.22.51.36.1.1.24.24.34.39.1.14.19.28.26.43.07.14.12.29.15.44.04.16.05.32.05.5l.25,35.23h-6.61s.15-32.66.15-32.66l-12.29.02-.53,32.68-6.6.05.29-10.59Z"/>
    <path class="cls-27" d="M14.93,276.49c.44-1.98,1.01-4.57,1.62-7.37.62-2.86,1.29-5.94,1.89-8.78.61-2.85,1.15-5.47,1.53-7.4l5.61-28.68c.02-.13.06-.25.09-.38.04-.14.08-.27.13-.39.05-.12.1-.24.16-.36.06-.11.12-.23.2-.34.07-.1.14-.2.21-.3.08-.1.16-.2.24-.3.09-.1.19-.2.29-.3.1-.1.21-.2.32-.3.2-.17.42-.33.63-.46.21-.13.42-.23.63-.31.21-.08.42-.14.64-.18.22-.04.46-.06.7-.06h22.33c.22,0,.42.02.61.05.16.03.32.08.46.14.13.06.26.13.38.22.13.09.25.21.37.34.02.03.11.17.17.3.07.13.12.27.15.41.04.14.06.3.06.47,0,.19,0,.39-.05.6l-1.49,8.98-6.22.13.98-5.57-16.41.25-7.3,39.18,8.12-.49,8.81-.5.98-5.59,6.52-.3c-.46,2.7-1.54,9.05-1.9,11.14l-31.5,6.15Z"/>
    <polygon class="cls-20" points="69.46 230.72 73.57 230.68 71.01 248.18 85.51 247.77 87.86 230.53 91.98 230.49 87.19 268.41 82.67 268.63 85.03 251.35 70.48 251.87 67.92 269.4 63.43 269.65 69.46 230.72"/>
    <path class="cls-73" d="M106.26,230.36l20.75-.14c.16,0,.32.01.47.04.13.02.25.05.36.1.1.04.2.09.29.14.11.07.2.14.29.22,0,0,.06.08.11.16.04.07.07.13.1.2.02.07.04.13.05.21.01.09.01.19,0,.3l-1.06,12.54c-.01.12-.03.23-.06.33-.03.1-.07.2-.12.29-.06.11-.13.21-.21.32-.09.12-.21.24-.35.35-.07.06-.22.16-.38.25-.14.08-.29.15-.44.21-.15.05-.31.1-.47.12-.16.03-.33.05-.5.05l-.99.02.06,4.98h.99c.22,0,.38.01.52.04.12.02.23.05.34.09.1.04.2.09.29.14.1.07.2.14.29.23.08.08.14.15.19.21.04.06.06.11.09.16.02.06.04.12.05.2.01.1.01.21,0,.32l-1.22,14.45-4.56.14,1.6-16.76-14.51.35-1.8,16.93-4.54.18,4.35-37.4ZM110.04,233.74l-1.42,13.5,9.3-.19,5.14-.09.37-3.68.45-4.8.48-4.93-14.32.18Z"/>
    <path class="cls-8" d="M142.43,266.44c-.22,0-.39-.01-.55-.04-.13-.02-.26-.05-.37-.1-.11-.04-.21-.09-.29-.14-.09-.06-.18-.13-.26-.2-.2-.17-.26-.25-.3-.3-.04-.05-.07-.1-.09-.15-.02-.05-.03-.1-.04-.16-.01-.08-.01-.16,0-.26l2.19-29.84.25-3.35c0-.11.03-.21.05-.3.03-.09.06-.18.11-.27.05-.1.12-.2.2-.29.1-.12.21-.23.35-.35.11-.09.23-.18.36-.25.13-.07.25-.13.38-.18.14-.05.29-.09.44-.11.17-.03.35-.04.53-.04l18.35-.07c.16,0,.33.01.48.04.13.02.26.06.39.1.12.04.23.1.33.16.12.07.23.15.33.24,0,.01.08.1.14.18.06.08.1.15.13.23.03.06.05.14.06.21.01.08.02.17.01.27l-1.29,32.8c0,.11-.02.21-.04.31-.02.09-.05.17-.09.25-.04.09-.1.17-.17.25-.09.11-.19.2-.3.3-.14.11-.28.22-.43.3-.14.08-.29.15-.44.21-.15.05-.31.1-.48.13-.17.03-.36.05-.55.05l-3.63.06-4.44.08c-1.61.03-3.36.07-5.23.11l-6.09.14ZM147.05,233.32l-.68,10.83-1.19,19,4.53-.09,10.13-.16.19-3.96,1.3-25.71-14.28.09Z"/>
    <path class="cls-15" d="M351.51,270.35l-1.3-11.17,6.68.31.98,5.58,10.09.58,6.85.41-3.06-16.47-5.25-.24-8.69-.37-5.42-.22c-.27-.01-.53-.04-.77-.09-.24-.05-.48-.12-.7-.21-.23-.09-.46-.21-.68-.34-.23-.14-.45-.3-.67-.49-.23-.2-.44-.4-.62-.61-.17-.19-.32-.4-.44-.62-.12-.2-.22-.41-.29-.62-.08-.22-.14-.45-.18-.69l-3.64-21.97c-.03-.2-.05-.4-.04-.58,0-.15.03-.31.07-.45.04-.13.09-.26.15-.39.08-.15.17-.29.29-.42.1-.11.2-.22.32-.3.11-.08.22-.15.34-.2.14-.06.29-.11.46-.14.19-.04.41-.05.64-.05h22.33c.22,0,.45.02.67.06.21.04.43.1.64.18.22.08.44.19.66.32.23.14.46.3.69.49.17.15.38.36.55.57.17.2.32.42.45.63s.23.44.32.67c.09.23.16.47.2.72l1.66,8.48-6.2-.15-1.06-5.69-16.42-.25,2.85,16.17,9.22.27,10.04.31c.24,0,.48.04.71.08.23.05.46.12.68.21.24.09.47.21.7.35.24.15.49.33.73.53.18.16.4.39.58.61.18.21.33.44.47.66.13.22.24.45.33.68.09.23.16.47.21.73.25,1.28.77,3.9,1.43,7.12.65,3.22,1.43,7.04,2.19,10.74l2.33,11.39-32.06-6.16Z"/>
    <path class="cls-36" d="M334.58,269.61c-1.88-.11-3.62-.21-5.23-.29l-4.43-.24-9.26-.47-1.92-.09-4.89-38,6.28.06,16.24.18.59,3.76-7.81-.16-10.67-.2,1.89,13.68,14.13.4.57,3.72-5.29-.2-8.91-.31,1.89,13.71s6.2.27,8.06.36c1.86.08,3.58.16,5.17.24l5.92.29.59,3.75-2.92-.17Z"/>
    <path class="cls-70" d="M295.32,267.7c-2.01-.08-3.83-.15-5.44-.22s-3.02-.11-4.23-.16l-10.44-.36-3.2-36.75,4.16.03,3.27,33.52s6.32.19,8.18.25c1.86.06,3.58.12,5.18.17l5.81.21.41,3.46c-1.3-.06-2.54-.11-3.7-.15Z"/>
    <path class="cls-10" d="M250.43,266.31c-1.61-.03-3.36-.07-5.23-.11-1.88-.04-3.88-.07-6.02-.11-.2,0-.4-.02-.58-.06-.17-.03-.33-.07-.48-.13-.15-.05-.29-.12-.41-.2-.13-.08-.26-.17-.38-.28-.19-.16-.31-.26-.4-.37-.08-.09-.13-.17-.18-.26-.04-.07-.07-.15-.09-.22-.03-.09-.04-.18-.04-.28l-1.38-32.82c0-.09,0-.18.01-.26.01-.06.03-.13.06-.19.03-.07.07-.14.12-.21.07-.09.15-.19.25-.27.09-.09.19-.16.28-.22.09-.06.2-.11.3-.15.12-.04.25-.08.39-.1.16-.03.33-.04.52-.04l12.61.05,5.74.03c.18,0,.34.01.49.04.15.03.29.06.43.11.14.05.28.12.41.19.14.08.28.18.42.29.05.05.16.16.26.28.07.09.14.19.19.29.05.1.09.19.11.28.03.1.05.21.06.32l.42,5.6-4.25-.04-.27-4.15-14.28-.11,1.58,29.7,8.94.15,5.72.1-.25-3.47-.04-.67,4.49.09.45,6.02c0,.12,0,.22,0,.31,0,.06-.02.12-.04.18-.02.05-.05.1-.08.15-.05.07-.11.13-.18.19-.11.1-.21.18-.32.24-.1.06-.21.11-.31.15-.12.04-.25.08-.38.1-.15.02-.3.04-.47.04l-8.2-.18Z"/>
    <polygon class="cls-31" points="217.43 265.83 216.75 230 220.92 230.01 222.02 265.87 217.43 265.83"/>
    <path class="cls-71" d="M179.91,230.01l20.54-.02c.17,0,.34.01.5.04.14.02.28.06.41.1.12.04.24.1.36.17.13.08.25.16.37.26.03.03.12.13.19.22.06.08.11.17.15.25.04.08.06.15.08.23.02.09.03.19.03.29l.24,34.21h-4.6s.15-32.66.15-32.66l-14.28.03-.53,32.68-4.59.04.99-35.84Z"/>
  </g>
  <g id="Create">
    <path class="cls-3" d="M116.5,170.02c.31,0,.6.03.88.08s.55.14.8.25.5.25.73.42.44.36.65.58c.19.23.35.47.49.73s.24.52.32.79.13.56.15.85.02.6-.02.92c-.05.53-.11,1.12-.18,1.77s-.14,1.37-.23,2.15-.17,1.63-.27,2.53-.2,1.88-.31,2.91h-9.21c.03-.26.06-.56.1-.88s.08-.69.13-1.08.1-.81.15-1.27.11-.94.17-1.46h-9.22c-.2,1.56-.43,3.32-.69,5.27s-.53,4.1-.84,6.44-.63,4.87-.99,7.6-.73,5.65-1.14,8.77h9.57c.03-.27.06-.56.1-.89s.08-.69.13-1.08.1-.81.15-1.27.11-.94.17-1.46h9.44c-.05.52-.17,1.61-.31,2.98s-.31,3-.47,4.58-.32,3.13-.44,4.31-.21,2-.22,2.15h-28.94c.02-.16.14-1.02.33-2.32s.43-3.04.71-4.96.57-4.01.86-6.01.56-3.92.78-5.48c.09-.64.19-1.33.29-2.05s.21-1.49.33-2.29.24-1.64.36-2.53.26-1.8.39-2.76c.14-.98.28-2.01.43-3.07s.31-2.16.47-3.3.33-2.32.5-3.54.35-2.48.54-3.78c.05-.32.12-.62.22-.92s.22-.58.38-.85.33-.54.53-.79.44-.49.69-.73c.25-.22.5-.42.77-.58s.54-.31.82-.42.57-.2.87-.25.61-.08.92-.08h18.15Z"/>
    <path class="cls-3" d="M193.57,170.02c0,1.16-.01,2.23-.02,3.19s-.01,1.84-.02,2.61,0,1.45-.01,2.04,0,1.07,0,1.46h-18.39c-.03,1.03-.06,2.01-.09,2.91s-.05,1.75-.08,2.53-.05,1.5-.07,2.15-.04,1.25-.06,1.77h14.01c-.01,1.04-.03,2.01-.04,2.91s-.02,1.75-.03,2.52-.02,1.49-.03,2.14-.02,1.23-.02,1.75h-14.18c-.03,1.04-.06,2.01-.09,2.92s-.05,1.76-.08,2.54-.05,1.5-.07,2.16-.04,1.25-.05,1.78h19.07c0,1.04-.01,2.01-.02,2.92s-.01,1.75-.02,2.53,0,1.49-.01,2.14,0,1.23,0,1.75h-28.92c.02-.52.04-1.02.06-1.51s.04-.96.06-1.41.04-.89.06-1.32.04-.83.05-1.22c.02-.39.03-.77.05-1.12s.03-.7.04-1.02.03-.63.04-.92.02-.56.04-.81c.05-1.17.1-2.25.14-3.23s.08-1.86.12-2.64.06-1.47.09-2.05.05-1.08.06-1.47c.05-1.17.1-2.25.14-3.22s.08-1.85.11-2.63.06-1.45.09-2.03.05-1.06.07-1.44c.05-1.17.09-2.25.14-3.22s.08-1.86.11-2.64.06-1.46.09-2.05.05-1.07.06-1.46c.05-1.16.1-2.22.14-3.19s.08-1.84.12-2.62.06-1.45.09-2.04.05-1.07.06-1.46h27.19Z"/>
    <path class="cls-3" d="M302.45,170.02c.17,1.16.32,2.23.46,3.19s.26,1.84.37,2.61c.11.78.21,1.45.29,2.04s.15,1.07.21,1.46h-18.38c.12,1.03.24,2.01.34,2.91.11.91.21,1.75.3,2.53s.18,1.5.25,2.15.15,1.25.21,1.77h14.01c.14,1.04.27,2.01.4,2.91s.24,1.75.34,2.52.2,1.49.29,2.14.17,1.23.24,1.75h-14.19c.12,1.04.24,2.01.35,2.92s.21,1.76.3,2.54.18,1.5.25,2.16.14,1.25.21,1.78h19.08c.15,1.04.28,2.01.41,2.92s.25,1.75.36,2.53.21,1.49.31,2.14.18,1.23.25,1.75h-28.92c-.06-.52-.11-1.02-.16-1.51s-.1-.96-.15-1.41-.09-.89-.14-1.32-.09-.83-.13-1.22c-.04-.39-.08-.77-.12-1.12s-.07-.7-.11-1.02-.07-.63-.1-.92-.06-.56-.09-.81c-.12-1.17-.24-2.25-.34-3.23s-.2-1.86-.28-2.64-.16-1.47-.22-2.05-.11-1.08-.16-1.47c-.12-1.17-.24-2.25-.34-3.22s-.19-1.85-.27-2.63-.15-1.45-.21-2.03-.11-1.06-.15-1.44c-.12-1.17-.24-2.25-.34-3.22s-.2-1.86-.28-2.64-.15-1.46-.22-2.05-.11-1.07-.15-1.46c-.12-1.16-.23-2.22-.34-3.19s-.19-1.84-.28-2.62-.15-1.45-.21-2.04-.11-1.07-.15-1.46h27.19Z"/>
    <path class="cls-3" d="M266.16,170.02c.09,1.03.18,2,.27,2.91.08.9.16,1.75.23,2.52s.14,1.49.2,2.13.11,1.23.16,1.74h-9.16c.38,4.68.72,8.96,1.04,12.86s.6,7.41.85,10.52c.25,3.12.47,5.85.66,8.18.19,2.34.34,4.28.47,5.84h-9.68c-.32-4.68-.61-8.96-.88-12.86s-.5-7.4-.72-10.52-.4-5.84-.56-8.18-.29-4.29-.4-5.85h-9.16c-.03-.58-.06-1.13-.09-1.67s-.06-1.04-.09-1.53-.05-.95-.08-1.39-.05-.85-.07-1.24c-.02-.39-.04-.76-.06-1.1s-.04-.65-.05-.94-.03-.55-.04-.79-.02-.46-.03-.65h27.19Z"/>
    <path class="cls-3" d="M230.07,174.64c.1,2.34.22,4.98.34,7.9s.27,6.14.42,9.65.32,7.31.49,11.4.37,8.47.57,13.15h-9.62c-.03-1.04-.07-2.2-.11-3.5s-.09-2.73-.13-4.29-.1-3.25-.16-5.07-.12-3.77-.18-5.85h-9.45c.02,1.04.04,2.2.06,3.5s.05,2.73.08,4.28.06,3.25.1,5.07.07,3.77.11,5.86h-9.62c0-.88-.01-1.87-.02-2.97s-.01-2.31-.02-3.63-.02-2.75-.03-4.3-.02-3.2-.03-4.97c0-.73,0-1.5-.01-2.32s0-1.68-.01-2.59-.01-1.86-.02-2.86-.01-2.04-.02-3.13c0-1.1-.01-2.24-.02-3.43s-.02-2.42-.02-3.7-.02-2.6-.03-3.97-.02-2.78-.03-4.23c0-.32.03-.62.08-.92s.14-.58.25-.85.25-.54.42-.79.36-.49.59-.73c.21-.22.44-.42.68-.58s.49-.31.76-.42.54-.2.84-.25.6-.08.92-.08h18.15c.31,0,.61.03.9.08s.57.14.84.25.53.25.79.42.5.36.73.58c.23.23.42.47.6.73s.32.52.44.79.21.56.28.85.11.6.12.92ZM212.06,188.7h9.34c0-.09,0-.2,0-.31s0-.24-.01-.38,0-.28-.01-.44,0-.33-.01-.51c-.01-.43-.03-.92-.05-1.46s-.04-1.13-.06-1.77-.04-1.34-.06-2.09-.05-1.55-.07-2.41h-9.22c0,.52.02,1.1.03,1.75s.02,1.37.04,2.15.03,1.63.05,2.54.03,1.89.05,2.94"/>
    <path class="cls-3" d="M155.91,171.36c.2.23.38.47.52.73s.27.52.36.79.16.56.2.85.05.6.03.92c-.04.78-.09,1.66-.15,2.64s-.11,2.05-.18,3.22-.14,2.44-.21,3.81-.16,2.83-.25,4.4c-.02.32-.06.62-.14.92s-.17.58-.3.86-.28.54-.46.79-.39.5-.63.73c-.24.22-.5.42-.76.58s-.54.3-.82.42-.57.19-.87.25-.61.08-.93.08c.32,0,.62.03.92.09s.57.15.84.26.52.26.77.44.47.38.69.61c.21.22.39.46.55.71s.28.51.38.78.16.56.2.86.05.62.03.94c-.06,1.04-.12,2.2-.19,3.5s-.15,2.73-.24,4.28-.18,3.25-.28,5.07-.21,3.77-.33,5.86h-9.61c.07-1.04.15-2.2.24-3.5s.19-2.73.29-4.29.22-3.25.34-5.07.26-3.77.4-5.85h-9.45c-.08,1.04-.18,2.2-.28,3.5s-.22,2.73-.34,4.28-.26,3.25-.41,5.07-.3,3.77-.47,5.86h-9.62c.1-1.04.2-2.2.32-3.5s.25-2.73.4-4.29.3-3.25.47-5.07.35-3.77.55-5.85c.05-.52.1-1.1.16-1.75s.13-1.36.2-2.14.15-1.62.23-2.52.17-1.88.27-2.91c.05-.52.1-1.07.15-1.65s.11-1.2.17-1.85.12-1.33.19-2.05.13-1.46.21-2.24c.07-.78.15-1.59.23-2.44s.16-1.72.24-2.63.17-1.85.26-2.82.18-1.97.28-3.01h22.69c.31,0,.6.03.89.08s.56.14.82.25.51.25.75.42.46.36.68.58ZM147.08,187.06c.03-.43.06-.92.1-1.46s.08-1.13.12-1.77.09-1.34.14-2.09.11-1.55.16-2.41h-9.22c-.04.52-.09,1.1-.14,1.75s-.11,1.37-.17,2.15-.13,1.63-.2,2.54-.15,1.89-.23,2.94h9.33c0-.09.01-.2.02-.31s.02-.24.03-.38.02-.28.03-.44.02-.33.04-.51"/>
    <path class="cls-38" d="M88.88,215.23l5.74-40.38c.03-.22.08-.44.15-.65.07-.21.16-.41.27-.6.11-.2.24-.39.39-.57.16-.19.33-.38.53-.55.18-.17.38-.31.57-.43.19-.12.38-.22.57-.29.2-.08.39-.13.6-.17.21-.04.43-.06.65-.06h18.15c.21,0,.4.02.59.06.17.03.34.09.49.15.16.07.3.15.44.26.15.11.29.23.42.38.08.1.19.26.28.42.09.16.15.33.2.5.05.17.08.36.1.55.02.2.01.42-.01.64l-.84,8.03h-6.18l.55-4.69h-12.22l-4.04,31.08h12.62l.54-4.69h6.45l-1.14,11.02h-25.86Z"/>
    <path class="cls-58" d="M146.67,215.23l1.27-18.71h-12.44l-1.5,18.71h-6.59l4.06-43.71h21.33c.21,0,.41.02.6.06.18.04.35.09.51.16.16.07.32.16.47.27.16.11.31.24.46.39.09.11.21.27.31.44.1.17.18.34.24.52.06.18.1.37.13.56.03.21.03.43.02.66l-.79,14.05c-.01.22-.04.44-.09.65-.05.2-.12.4-.2.58-.09.19-.19.37-.32.55-.13.18-.29.36-.46.53-.13.12-.32.26-.51.38-.18.11-.37.21-.56.29-.19.08-.39.13-.6.17-.21.04-.43.06-.65.06v3c.22,0,.43.02.62.06.19.04.37.09.54.17.17.07.34.17.49.28.16.11.32.25.47.41.15.15.26.3.37.47.1.16.17.32.23.49s.11.36.13.56c.03.21.03.43.02.67l-.97,17.3h-6.59ZM136.01,190.2h12.35l.22-3.02.63-9.35h-12.21l-.99,12.38Z"/>
    <polygon class="cls-48" points="165.93 215.23 167.02 189.88 167.08 188.77 167.82 171.52 192.06 171.52 192.03 177.82 173.68 177.82 173.3 190.2 187.33 190.2 187.25 196.52 173.1 196.52 172.72 208.91 191.83 208.91 191.79 215.23 165.93 215.23"/>
    <polygon class="cls-28" points="281.53 215.23 278.73 188.55 276.93 171.52 301.15 171.52 302.05 177.82 283.71 177.82 285.17 190.2 299.2 190.2 300.06 196.52 285.91 196.52 287.21 207.58 287.36 208.91 306.47 208.91 307.37 215.23 281.53 215.23"/>
    <polygon class="cls-7" points="252.6 215.23 250.05 177.82 240.91 177.82 240.55 171.52 264.79 171.52 265.38 177.82 256.24 177.82 259.25 215.23 252.6 215.23"/>
    <path class="cls-45" d="M223.73,215.23l-.58-18.71h-12.43l.35,18.71h-6.6l-.26-40.6c0-.21.02-.43.06-.63.04-.2.09-.39.17-.56.07-.18.17-.36.28-.52.12-.18.26-.35.42-.51.15-.16.3-.29.46-.4.16-.11.31-.2.48-.27.17-.07.35-.13.54-.16.2-.04.41-.06.63-.06h18.15c.21,0,.42.02.61.06.19.04.38.09.55.16.18.07.36.17.53.28.18.12.36.26.53.42.12.12.26.3.39.48.12.17.22.36.3.54.08.19.15.39.19.58.05.21.08.43.09.66l1.25,28.94.51,11.59h-6.6ZM210.59,190.2h12.34l-.08-3.18-.28-9.19h-12.2l.22,12.38Z"/>
    <path class="cls-24" d="M90.03,214.23l5.58-39.24c.02-.16.06-.32.11-.47.05-.15.12-.3.19-.44.08-.15.18-.29.29-.43.12-.15.26-.3.42-.44.14-.13.29-.24.43-.33.13-.08.27-.15.4-.21.14-.06.27-.09.42-.12.15-.03.31-.04.46-.04h18.15c.14,0,.27.01.39.04.1.02.2.05.28.09.09.04.18.09.26.15.09.07.18.15.26.24.02.02.08.12.14.23.05.1.09.2.12.3.03.11.05.23.06.35.01.15,0,.3,0,.46l-.75,7.14h-4.15l.55-4.69h-14.22l-4.3,33.08h14.65l.54-4.69h4.45l-.93,9.02h-23.81Z"/>
    <path class="cls-14" d="M147.74,214.23l1.27-18.71h-14.43l-1.5,18.71h-4.57l3.87-41.71h20.42c.14,0,.28.01.41.04.11.02.21.05.31.1s.2.1.29.16c.1.07.21.17.31.27.02.03.1.14.17.25.06.11.12.22.15.34.04.12.07.24.08.37.02.16.02.32.02.48l-.79,14.04c0,.16-.03.32-.07.47-.03.13-.08.27-.14.4-.06.13-.14.26-.22.39-.1.14-.22.27-.35.4-.06.06-.2.16-.34.25-.12.08-.26.15-.39.2-.13.05-.27.09-.42.12-.15.03-.31.04-.47.04h-1v5h1c.15,0,.29.01.43.04.12.02.23.06.34.1.11.05.21.11.31.18.11.08.22.17.32.28.1.11.18.21.25.31.06.09.1.19.14.3.04.11.07.23.08.35.02.15.02.31.01.48l-.92,16.35h-4.57ZM134.92,191.2h14.36l.29-3.95.7-10.43h-14.2l-1.15,14.38Z"/>
    <polygon class="cls-51" points="166.97 214.23 168.02 189.93 168.07 188.82 168.78 172.52 191.06 172.52 191.03 176.82 172.71 176.82 172.27 191.2 186.32 191.2 186.27 195.52 172.13 195.52 171.69 209.91 190.83 209.91 190.8 214.23 166.97 214.23"/>
    <polygon class="cls-30" points="282.43 214.23 279.72 188.44 278.04 172.52 300.28 172.52 300.9 176.82 282.59 176.82 284.28 191.2 298.33 191.2 298.92 195.52 284.78 195.52 286.21 207.69 286.46 209.91 305.61 209.91 306.22 214.23 282.43 214.23"/>
    <polygon class="cls-62" points="253.53 214.23 250.98 176.82 241.85 176.82 241.61 172.52 263.88 172.52 264.28 176.82 255.16 176.82 258.17 214.23 253.53 214.23"/>
    <path class="cls-12" d="M224.7,214.23l-.58-18.71h-14.42l.35,18.71h-4.59l-.25-39.61c0-.15.01-.3.04-.44.02-.13.06-.25.11-.37.05-.12.11-.24.18-.35.08-.13.19-.25.3-.37.11-.11.21-.2.31-.27.1-.07.19-.12.29-.16.11-.05.22-.08.34-.1.14-.03.29-.04.45-.04h18.15c.14,0,.29.01.42.04.12.02.24.06.36.11.13.05.25.12.36.19.14.09.27.2.4.32.05.05.16.18.25.32.08.12.15.24.21.37.06.13.1.27.13.41.03.15.05.31.06.48l1.71,39.47h-4.59ZM209.6,191.2h14.35l-.1-4.21-.31-10.17h-14.19l.25,14.38Z"/>
    <path class="cls-9" d="M116.09,216.73l5.5,3.49c-.18,0-1.18,0-2.7,0h-24.3l-7.45-3.49s.28,0,.64,0h28.3Z"/>
    <path class="cls-9" d="M135.38,216.73l4.21,3.49c-.5,0-1.06,0-1.69,0h-7.29l-4.86-3.49c1.07,0,2.07,0,3,0h6.62Z"/>
    <path class="cls-9" d="M154.67,216.73l2.92,3.49c-.5,0-1.06,0-1.68,0h-7.29l-3.56-3.49c1.07,0,2.07,0,3,0h6.61Z"/>
    <path class="cls-9" d="M193.29,216.73l.32,3.49c-2,0-3.87,0-5.62,0h-21.37l-2.27-3.49c.53,0,1.13,0,1.8,0h27.12Z"/>
    <path class="cls-9" d="M309.1,216.73l-7.45,3.49c-2,0-3.87,0-5.62,0h-21.37l5.51-3.49c.53,0,1.13,0,1.8,0h27.12Z"/>
    <path class="cls-9" d="M260.88,216.73l-4.21,3.49c-1.13,0-2.17,0-3.11,0h-5.93l3.56-3.49c.4,0,.91,0,1.51,0h8.17Z"/>
    <path class="cls-9" d="M212.59,216.73l-.97,3.49c-.5,0-1.06,0-1.69,0h-7.29l.32-3.49c1.07,0,2.07,0,3,0h6.62Z"/>
    <path class="cls-9" d="M231.89,216.73l-2.27,3.49c-.5,0-1.06,0-1.69,0h-7.29l1.62-3.49c1.07,0,2.07,0,3,0h6.62Z"/>
  </g>
</svg>