<?xml version="1.0" encoding="UTF-8"?>
<svg id="Layer_2" data-name="Layer 2" xmlns="http://www.w3.org/2000/svg" viewBox="0 0 402.56 380.56">
  <defs>
    <style>
      .cls-1 {
        fill: #08171a;
      }

      .cls-2 {
        fill: #485e70;
      }

      .cls-3 {
        fill: #f8f0be;
      }

      .cls-4 {
        fill: #4f5d75;
      }

      .cls-5 {
        fill: #fff;
      }

      .cls-6 {
        fill: #ffd774;
      }

      .cls-7 {
        fill: #f64a03;
      }

      .cls-8 {
        fill: #111b30;
      }

      .cls-9 {
        fill: #69fadc;
      }

      .cls-10 {
        fill: #1a4164;
      }

      .cls-11 {
        fill: #2d3142;
      }
    </style>
  </defs>
  <g id="Layer_1-2" data-name="Layer 1">
    <g>
      <path class="cls-8" d="M26.67,380.56v-13.37l8.31-37h16.19l.18-6.85h32l14.24-14.03-18.98-19.51.05-45.71,25.6-45.42h9.83l6.5-15.28h9.69l6.56-18.22-72.1,63.42-23.06.09-.36-3.11c-.71-6.22-1.11-9.97-1.32-12.3-5.2-.26-16.99-.54-25.46-.68l-2.3-.04L0,182.73l28.47-23.27-2.85-8.02-5.47,2.33-8.25-15.35,15.33-17.04,20.73-66.16,12.54-.03,16.79,17.87-4.59,15.25,12.21-10.82,7.23,10.63,39.94-58.97,28.01,25.63-19.25,29.48,24.85-6.11,18.13,20.02-10.5,4.79,40.93,57.3-19.64,4.75-5.16,21.56,14.83,27.49-25.06,4.47-2.1,10.62,44.91-19.4,9.06-72.17-30.87-43.26L381.98,0l20.58,22.8-47.86,89.3,45.74,76.02-68.76,24.79-12.26,53.19-28.93-1.15-15.34,12.07-44.99-11.06.16,11.64,4.61,5.93,12.11-.61,1.16,14.88,10.62-1.34.19,8.86,7.59,9.23,27.9-3.16,1.17,9.76,23.63,5.15-1.59,3.38,24.99,8.2-6.95,5.37,14.88,35.04-23.04-22.61-13.33-4.36-31.61-7.09-25.8-.19-.4,19.16h-63.42l-2.17,5.52h-45.4s7.33-27.5,7.33-27.5h2.83v-12.02h3.48l-9.46-9.46-41.9,47.47v13.37H26.67ZM219.43,267.05l7.79-1.83-12.46-3.06,4.68,4.89ZM141.34,152.59l1.18-3.29-5.95-16.69h-2.26l7.02,19.98Z"/>
      <polygon class="cls-11" points="152.17 365.22 154.47 365.22 155.11 363.09 159.21 363.09 164.48 349.6 164.48 346.1 156.38 346.1 152.17 365.22"/>
      <polygon class="cls-11" points="40.83 204.57 16.95 203.17 9.4 185.26 37.07 161.64 36.29 159.05 38.45 157.5 33.56 139.84 35.91 123.8 53.83 64.62 58.52 64.62 42.59 122.07 49.3 122.17 79.46 92.8 74.06 115.06 92.11 104.83 133.9 42.32 147.42 53.91 110.02 111.33 97.89 109.64 110.02 111.33 123.99 161.11 98.6 183.5 91.58 171.03 40.83 204.57"/>
      <polygon class="cls-6" points="109.32 207.91 121.08 207.91 126.35 190.66 137.76 190.66 150.58 153.3 184.82 151.81 176.04 191.4 164.81 191.4 160.06 208.09 154.09 208.09 147.42 224.24 139.87 224.24 127.97 248.03 125.65 280.78 87.89 280.78 87.89 246.54 109.32 207.91"/>
      <polygon class="cls-3" points="90.99 263.09 90.99 247.34 111.14 211 123.37 211 128.64 193.75 139.97 193.75 152.82 156.3 180.93 155.07 173.56 188.31 162.47 188.31 157.73 204.99 152.02 204.99 145.35 221.15 137.96 221.15 124.93 247.2 123.8 263.08 90.99 263.09"/>
      <polygon class="cls-11" points="131.97 249.88 128.63 296.24 144.08 296.24 151.81 309.58 159.01 309.58 159.01 242.85 131.97 249.88"/>
      <polygon class="cls-11" points="129.86 301.33 137.32 301.33 141.98 309.58 111.95 346.46 111.95 336.71 58.92 336.71 58.92 331.18 105.28 331.18 129.86 301.33"/>
      <polygon class="cls-10" points="230.83 98.53 374.26 17.21 374.26 12.2 211.74 96.75 238.87 133.85 230.83 98.53"/>
      <polygon class="cls-10" points="260.95 120.55 370.48 179.91 254.52 133.37 260.95 120.55"/>
      <polygon class="cls-10" points="230.83 209.39 239.52 212.91 239.52 146 230.83 209.39"/>
      <polygon class="cls-10" points="173.41 238.82 174.46 246.54 230.83 219.68 226.09 216.51 173.41 238.82"/>
      <polygon class="cls-6" points="210.11 250.57 240.92 231.95 282.4 258.76 270.68 267.46 210.11 250.57"/>
      <polygon class="cls-6" points="255.11 169.37 322.43 206.08 311.76 253.99 290.33 252.5 256.41 220.73 255.11 169.37"/>
      <polygon class="cls-6" points="362.94 187.28 327.34 199.27 254.89 159.91 254.52 145.57 362.94 187.28"/>
      <polygon class="cls-6" points="257.74 99.94 370.48 171.24 333.64 113.35 378.88 32.09 257.74 99.94"/>
      <polygon class="cls-11" points="190.27 307.65 207.13 307.65 207.13 316.26 213.97 317.13 226.62 331.71 231.89 331.71 230.83 302.03 247.51 312.39 211.34 280.78 190.27 288.86 190.27 307.65"/>
      <polygon class="cls-9" points="202.12 257.25 191.67 260.24 224.86 287.63 229.78 287.63 225.17 280.78 223.53 272.01 218.17 273.86 202.12 257.25"/>
      <polygon class="cls-9" points="229.08 290.09 241.06 289.3 242.9 301.94 239.61 302.73 229.08 290.09"/>
      <polygon class="cls-9" points="253.23 307.34 253.23 323.67 262.58 322.88 253.23 307.34"/>
      <polygon class="cls-9" points="269.11 322.09 269.77 325.91 289.53 328.68 288.6 319.59 269.11 322.09"/>
      <polygon class="cls-9" points="295.98 327.49 310.47 330.66 307.83 334.61 295.45 331.05 295.98 327.49"/>
      <polygon class="cls-9" points="316.66 335.4 320.61 342.9 329.04 339.15 316.66 335.4"/>
      <polygon class="cls-2" points="197.99 324.14 197.99 336.06 211.69 336.06 197.99 324.14"/>
      <polygon class="cls-10" points="148.5 90.28 157.43 102.86 172.88 95.64 163.05 85.69 148.5 90.28"/>
      <polygon class="cls-10" points="166.21 102.37 160.07 106.94 184.82 129.77 166.21 102.37"/>
      <polygon class="cls-10" points="189.87 137.82 191.67 159.08 203.09 156.46 189.87 137.82"/>
      <polygon class="cls-10" points="184.82 192.63 194.79 209.49 182.01 211 184.82 192.63"/>
      <polygon class="cls-6" points="90.79 177.09 48.91 210.19 48.91 220.29 60.5 220.29 96.32 187.63 90.79 177.09"/>
      <polygon class="cls-9" points="133.99 41.97 137.41 45.39 97.89 109.64 86.84 118.35 91.05 105.71 133.99 41.97"/>
      <polygon class="cls-4" points="64.89 162.17 33.46 187.36 40.83 204.57 16.95 203.17 9.4 185.26 37.07 161.64 31.15 141.92 23.18 144.96 20.89 140.09 35.91 123.8 42.59 122.07 49.87 121.95 79.46 92.8 62.17 121.69 91.36 105.26 97.89 109.64 86.84 128.63 52.59 147.02 58.73 163.52 64.89 162.17"/>
      <polygon class="cls-9" points="35.91 123.8 53.83 64.62 58.52 64.62 42.59 122.07 35.91 123.8"/>
      <polygon class="cls-10" points="97.89 109.64 110.02 111.33 147.42 53.91 137.41 45.39 97.89 109.64"/>
      <polygon class="cls-10" points="49.3 122.17 66.7 73.69 58.52 64.62 42.59 122.07 49.3 122.17"/>
      <polygon class="cls-6" points="151.11 148.69 144.08 126.96 160.77 148.56 151.11 148.69"/>
      <polygon class="cls-9" points="238.87 133.85 219.12 97.68 374.26 12.2 211.74 96.75 238.87 133.85"/>
      <polygon class="cls-9" points="230.83 209.39 233.95 210.65 239.52 146 230.83 209.39"/>
      <polygon class="cls-9" points="260.95 120.55 258.79 124.86 370.48 179.91 260.95 120.55"/>
      <polygon class="cls-9" points="173.8 241.64 227.85 217.69 226.09 216.51 173.41 238.82 173.8 241.64"/>
      <polygon class="cls-9" points="150.42 92.33 162.5 88.59 172.88 95.64 163.05 85.69 148.5 90.28 150.42 92.33"/>
      <polygon class="cls-9" points="184.82 129.77 166.21 102.37 164.15 103.9 184.82 129.77"/>
      <polygon class="cls-9" points="189.87 137.82 198.88 157.42 203.09 156.46 189.87 137.82"/>
      <polygon class="cls-1" points="60.1 146.1 70.24 169.8 97.89 152.86 87.89 131.17 60.1 146.1"/>
      <polygon class="cls-7" points="66.7 148.41 85.5 138.31 91.29 150.86 72.64 162.29 66.7 148.41"/>
      <polygon class="cls-6" points="71.17 149.98 80.36 138.8 86.81 149.5 74.26 157.19 71.17 149.98"/>
      <polygon class="cls-3" points="48.91 210.19 51.54 217.92 59.97 217.92 96.32 187.63 60.5 220.29 48.91 220.29 48.91 210.19"/>
      <polygon class="cls-9" points="84.15 86.02 77.42 111.04 90.88 96.93 84.15 86.02"/>
      <polygon class="cls-10" points="77.42 111.04 85.89 88.84 90.88 96.93 77.42 111.04"/>
      <polygon class="cls-4" points="128.63 296.24 137.31 296.18 140.01 247.79 131.97 249.88 128.63 296.24"/>
      <polygon class="cls-4" points="105.15 331.23 111.6 331.23 137.2 301.38 129.73 301.38 105.15 331.23"/>
      <polygon class="cls-4" points="197.87 307.7 197.87 292.25 211.21 280.83 190.14 288.91 190.14 307.7 197.87 307.7"/>
      <polygon class="cls-6" points="90.99 247.34 115.49 247.34 90.99 251.74 90.99 247.34"/>
      <polygon class="cls-6" points="111.14 211 143.82 211 108.08 216.51 111.14 211"/>
      <polygon class="cls-6" points="128.64 193.75 156.56 193.75 127.52 197.42 128.64 193.75"/>
      <polygon class="cls-11" points="94.35 131.37 64.1 156.57 52.59 147.02 84.83 116.85 94.35 131.37"/>
      <polygon class="cls-10" points="191.67 260.24 200.63 260.24 227.85 287.63 224.86 287.63 191.67 260.24"/>
      <polygon class="cls-3" points="370.48 171.24 271.48 101.44 378.88 32.09 257.74 99.94 370.48 171.24"/>
      <polygon class="cls-3" points="210.11 250.57 240.31 236.7 282.4 258.76 240.92 231.95 210.11 250.57"/>
      <path class="cls-3" d="M256.41,220.73c1.03-1.71,4.01-40.82,4.01-40.82l62.01,26.17-67.31-36.71,1.29,51.36Z"/>
      <polygon class="cls-3" points="254.89 159.91 257.74 150.23 362.94 187.28 254.52 145.57 254.89 159.91"/>
      <polygon class="cls-10" points="286.31 256.52 243.33 227.12 247.62 221.47 286.31 256.52"/>
      <path class="cls-9" d="M247.62,221.47c.42-.55-1.51,1.99-1.51,1.99l40.21,33.06-38.7-35.05Z"/>
      <polygon class="cls-3" points="156.05 147.62 152.43 147.62 146.79 132.4 156.05 147.62"/>
      <polygon class="cls-9" points="194.79 209.49 188.89 210.19 184.82 192.63 194.79 209.49"/>
      <polygon class="cls-11" points="133.55 245.16 141.32 229.08 149.69 229.08 155.5 212.91 162.19 212.91 166.85 194.61 177.97 194.61 165.02 236.13 133.55 245.16"/>
      <polygon class="cls-4" points="170.42 194.77 164.91 216.4 157.96 216.4 152.15 232.58 143.51 232.58 138.05 243.86 133.55 245.16 141.32 229.08 149.69 229.08 155.5 212.91 162.19 212.91 166.85 194.61 170.42 194.77"/>
      <polygon class="cls-11" points="58.58 374.13 62.41 374.13 68.51 360.8 78.29 360.8 78.29 342.23 63.97 342.23 58.58 374.13"/>
      <polygon class="cls-5" points="58.58 374.13 60.6 374.13 67.94 342.23 63.97 342.23 58.58 374.13"/>
      <polygon class="cls-11" points="34.98 374.13 38.81 374.13 44.9 360.8 54.68 360.8 54.68 342.23 40.36 342.23 34.98 374.13"/>
      <polygon class="cls-5" points="34.98 374.13 36.99 374.13 44.33 342.23 40.36 342.23 34.98 374.13"/>
      <polygon class="cls-11" points="80.74 374.13 84.57 374.13 90.66 360.8 100.45 360.8 100.45 342.23 86.13 342.23 80.74 374.13"/>
      <polygon class="cls-5" points="80.74 374.13 82.75 374.13 90.1 342.23 86.13 342.23 80.74 374.13"/>
      <polygon class="cls-5" points="152.17 365.22 153.47 365.22 157.9 346.1 156.38 346.1 152.17 365.22"/>
      <polygon class="cls-11" points="166.46 365.22 168.76 365.22 169.4 363.09 173.5 363.09 178.77 349.6 178.77 346.1 170.67 346.1 166.46 365.22"/>
      <polygon class="cls-5" points="166.46 365.22 167.76 365.22 172.19 346.1 170.67 346.1 166.46 365.22"/>
      <polygon class="cls-11" points="180.74 365.22 183.05 365.22 183.68 363.09 187.79 363.09 193.06 349.6 193.06 346.1 184.96 346.1 180.74 365.22"/>
      <polygon class="cls-5" points="180.74 365.22 182.05 365.22 186.47 346.1 184.96 346.1 180.74 365.22"/>
      <polygon class="cls-10" points="229.08 290.09 231.4 289.94 241.06 302.39 239.61 302.73 229.08 290.09"/>
      <polygon class="cls-10" points="253.23 307.34 256.97 323.35 253.23 323.67 253.23 307.34"/>
      <polygon class="cls-10" points="269.11 322.09 289.53 328.68 269.77 325.91 269.11 322.09"/>
      <polygon class="cls-10" points="295.69 329.47 309 332.86 307.83 334.61 295.45 331.05 295.69 329.47"/>
      <polygon class="cls-10" points="316.66 335.4 324.12 341.34 320.61 342.9 316.66 335.4"/>
    </g>
  </g>
</svg>